ISO-10303-21;
HEADER;
/* Generated by software containing ST-Developer
 * from STEP Tools, Inc. (www.steptools.com) 
 */

FILE_DESCRIPTION(
/* description */ (''),
/* implementation_level */ '2;1');

FILE_NAME(
/* name */ 'LTST-S33FBEGW-5A.step',
/* time_stamp */ '2025-09-18T13:20:15+02:00',
/* author */ (''),
/* organization */ (''),
/* preprocessor_version */ 'ST-DEVELOPER v20.1',
/* originating_system */ 'Autodesk Translation Framework v14.17.0.0',
/* authorisation */ '');

FILE_SCHEMA (('AUTOMOTIVE_DESIGN { 1 0 10303 214 3 1 1 }'));
ENDSEC;

DATA;
#10=MECHANICAL_DESIGN_GEOMETRIC_PRESENTATION_REPRESENTATION('',(#25,#26,
#27,#28,#29,#30,#31),#1691);
#11=SHAPE_REPRESENTATION_RELATIONSHIP('SRR','None',#1698,#12);
#12=ADVANCED_BREP_SHAPE_REPRESENTATION('',(#32,#33,#34,#35,#36,#37,#38),
#1690);
#13=CIRCLE('',#1095,0.275);
#14=CIRCLE('',#1096,0.275);
#15=CIRCLE('',#1103,0.275);
#16=CIRCLE('',#1104,0.275);
#17=CIRCLE('',#1115,0.275);
#18=CIRCLE('',#1116,0.275);
#19=CIRCLE('',#1123,0.275);
#20=CIRCLE('',#1124,0.275);
#21=CYLINDRICAL_SURFACE('',#1094,0.275);
#22=CYLINDRICAL_SURFACE('',#1102,0.275);
#23=CYLINDRICAL_SURFACE('',#1114,0.275);
#24=CYLINDRICAL_SURFACE('',#1122,0.275);
#25=STYLED_ITEM('',(#1708),#32);
#26=STYLED_ITEM('',(#1709),#33);
#27=STYLED_ITEM('',(#1710),#34);
#28=STYLED_ITEM('',(#1711),#35);
#29=STYLED_ITEM('',(#1711),#36);
#30=STYLED_ITEM('',(#1711),#37);
#31=STYLED_ITEM('',(#1711),#38);
#32=MANIFOLD_SOLID_BREP('Body1',#1041);
#33=MANIFOLD_SOLID_BREP('Body2',#1042);
#34=MANIFOLD_SOLID_BREP('Body3',#1043);
#35=MANIFOLD_SOLID_BREP('Body4',#1044);
#36=MANIFOLD_SOLID_BREP('Body5',#1045);
#37=MANIFOLD_SOLID_BREP('Body6',#1046);
#38=MANIFOLD_SOLID_BREP('Body7',#1047);
#39=FACE_OUTER_BOUND('',#99,.T.);
#40=FACE_OUTER_BOUND('',#100,.T.);
#41=FACE_OUTER_BOUND('',#101,.T.);
#42=FACE_OUTER_BOUND('',#102,.T.);
#43=FACE_OUTER_BOUND('',#103,.T.);
#44=FACE_OUTER_BOUND('',#104,.T.);
#45=FACE_OUTER_BOUND('',#105,.T.);
#46=FACE_OUTER_BOUND('',#106,.T.);
#47=FACE_OUTER_BOUND('',#107,.T.);
#48=FACE_OUTER_BOUND('',#108,.T.);
#49=FACE_OUTER_BOUND('',#109,.T.);
#50=FACE_OUTER_BOUND('',#110,.T.);
#51=FACE_OUTER_BOUND('',#111,.T.);
#52=FACE_OUTER_BOUND('',#112,.T.);
#53=FACE_OUTER_BOUND('',#113,.T.);
#54=FACE_OUTER_BOUND('',#114,.T.);
#55=FACE_OUTER_BOUND('',#115,.T.);
#56=FACE_OUTER_BOUND('',#116,.T.);
#57=FACE_OUTER_BOUND('',#117,.T.);
#58=FACE_OUTER_BOUND('',#118,.T.);
#59=FACE_OUTER_BOUND('',#119,.T.);
#60=FACE_OUTER_BOUND('',#120,.T.);
#61=FACE_OUTER_BOUND('',#121,.T.);
#62=FACE_OUTER_BOUND('',#122,.T.);
#63=FACE_OUTER_BOUND('',#123,.T.);
#64=FACE_OUTER_BOUND('',#124,.T.);
#65=FACE_OUTER_BOUND('',#125,.T.);
#66=FACE_OUTER_BOUND('',#126,.T.);
#67=FACE_OUTER_BOUND('',#127,.T.);
#68=FACE_OUTER_BOUND('',#128,.T.);
#69=FACE_OUTER_BOUND('',#129,.T.);
#70=FACE_OUTER_BOUND('',#130,.T.);
#71=FACE_OUTER_BOUND('',#131,.T.);
#72=FACE_OUTER_BOUND('',#132,.T.);
#73=FACE_OUTER_BOUND('',#133,.T.);
#74=FACE_OUTER_BOUND('',#134,.T.);
#75=FACE_OUTER_BOUND('',#135,.T.);
#76=FACE_OUTER_BOUND('',#136,.T.);
#77=FACE_OUTER_BOUND('',#137,.T.);
#78=FACE_OUTER_BOUND('',#138,.T.);
#79=FACE_OUTER_BOUND('',#139,.T.);
#80=FACE_OUTER_BOUND('',#140,.T.);
#81=FACE_OUTER_BOUND('',#141,.T.);
#82=FACE_OUTER_BOUND('',#142,.T.);
#83=FACE_OUTER_BOUND('',#143,.T.);
#84=FACE_OUTER_BOUND('',#144,.T.);
#85=FACE_OUTER_BOUND('',#145,.T.);
#86=FACE_OUTER_BOUND('',#146,.T.);
#87=FACE_OUTER_BOUND('',#147,.T.);
#88=FACE_OUTER_BOUND('',#148,.T.);
#89=FACE_OUTER_BOUND('',#149,.T.);
#90=FACE_OUTER_BOUND('',#150,.T.);
#91=FACE_OUTER_BOUND('',#151,.T.);
#92=FACE_OUTER_BOUND('',#152,.T.);
#93=FACE_OUTER_BOUND('',#153,.T.);
#94=FACE_OUTER_BOUND('',#154,.T.);
#95=FACE_OUTER_BOUND('',#155,.T.);
#96=FACE_OUTER_BOUND('',#156,.T.);
#97=FACE_OUTER_BOUND('',#157,.T.);
#98=FACE_OUTER_BOUND('',#158,.T.);
#99=EDGE_LOOP('',(#649,#650,#651,#652));
#100=EDGE_LOOP('',(#653,#654,#655,#656));
#101=EDGE_LOOP('',(#657,#658,#659,#660));
#102=EDGE_LOOP('',(#661,#662,#663,#664));
#103=EDGE_LOOP('',(#665,#666,#667,#668));
#104=EDGE_LOOP('',(#669,#670,#671,#672));
#105=EDGE_LOOP('',(#673,#674,#675,#676));
#106=EDGE_LOOP('',(#677,#678,#679,#680));
#107=EDGE_LOOP('',(#681,#682,#683,#684));
#108=EDGE_LOOP('',(#685,#686,#687,#688));
#109=EDGE_LOOP('',(#689,#690,#691,#692));
#110=EDGE_LOOP('',(#693,#694,#695,#696));
#111=EDGE_LOOP('',(#697,#698,#699,#700));
#112=EDGE_LOOP('',(#701,#702,#703,#704));
#113=EDGE_LOOP('',(#705,#706,#707,#708));
#114=EDGE_LOOP('',(#709,#710,#711,#712,#713,#714,#715,#716,#717,#718,#719,
#720,#721,#722,#723,#724));
#115=EDGE_LOOP('',(#725,#726,#727,#728));
#116=EDGE_LOOP('',(#729,#730,#731,#732));
#117=EDGE_LOOP('',(#733,#734,#735,#736));
#118=EDGE_LOOP('',(#737,#738,#739,#740,#741,#742,#743,#744,#745,#746,#747,
#748,#749,#750,#751,#752));
#119=EDGE_LOOP('',(#753,#754,#755,#756));
#120=EDGE_LOOP('',(#757,#758,#759,#760));
#121=EDGE_LOOP('',(#761,#762,#763,#764));
#122=EDGE_LOOP('',(#765,#766,#767,#768));
#123=EDGE_LOOP('',(#769,#770,#771,#772));
#124=EDGE_LOOP('',(#773,#774,#775,#776));
#125=EDGE_LOOP('',(#777,#778,#779,#780));
#126=EDGE_LOOP('',(#781,#782,#783,#784));
#127=EDGE_LOOP('',(#785,#786,#787,#788));
#128=EDGE_LOOP('',(#789,#790,#791,#792));
#129=EDGE_LOOP('',(#793,#794,#795,#796));
#130=EDGE_LOOP('',(#797,#798,#799,#800));
#131=EDGE_LOOP('',(#801,#802,#803,#804));
#132=EDGE_LOOP('',(#805,#806,#807,#808));
#133=EDGE_LOOP('',(#809,#810,#811,#812));
#134=EDGE_LOOP('',(#813,#814,#815,#816));
#135=EDGE_LOOP('',(#817,#818,#819,#820,#821,#822));
#136=EDGE_LOOP('',(#823,#824,#825,#826,#827,#828));
#137=EDGE_LOOP('',(#829,#830,#831,#832));
#138=EDGE_LOOP('',(#833,#834,#835,#836));
#139=EDGE_LOOP('',(#837,#838,#839,#840));
#140=EDGE_LOOP('',(#841,#842,#843,#844));
#141=EDGE_LOOP('',(#845,#846,#847,#848));
#142=EDGE_LOOP('',(#849,#850,#851,#852));
#143=EDGE_LOOP('',(#853,#854,#855,#856,#857,#858));
#144=EDGE_LOOP('',(#859,#860,#861,#862,#863,#864));
#145=EDGE_LOOP('',(#865,#866,#867,#868));
#146=EDGE_LOOP('',(#869,#870,#871,#872));
#147=EDGE_LOOP('',(#873,#874,#875,#876));
#148=EDGE_LOOP('',(#877,#878,#879,#880));
#149=EDGE_LOOP('',(#881,#882,#883,#884));
#150=EDGE_LOOP('',(#885,#886,#887,#888,#889));
#151=EDGE_LOOP('',(#890,#891,#892,#893,#894));
#152=EDGE_LOOP('',(#895,#896,#897,#898));
#153=EDGE_LOOP('',(#899,#900,#901,#902));
#154=EDGE_LOOP('',(#903,#904,#905,#906));
#155=EDGE_LOOP('',(#907,#908,#909,#910));
#156=EDGE_LOOP('',(#911,#912,#913,#914));
#157=EDGE_LOOP('',(#915,#916,#917,#918,#919));
#158=EDGE_LOOP('',(#920,#921,#922,#923,#924));
#159=LINE('',#1401,#289);
#160=LINE('',#1403,#290);
#161=LINE('',#1405,#291);
#162=LINE('',#1406,#292);
#163=LINE('',#1409,#293);
#164=LINE('',#1411,#294);
#165=LINE('',#1412,#295);
#166=LINE('',#1415,#296);
#167=LINE('',#1416,#297);
#168=LINE('',#1419,#298);
#169=LINE('',#1420,#299);
#170=LINE('',#1422,#300);
#171=LINE('',#1427,#301);
#172=LINE('',#1429,#302);
#173=LINE('',#1431,#303);
#174=LINE('',#1432,#304);
#175=LINE('',#1435,#305);
#176=LINE('',#1437,#306);
#177=LINE('',#1438,#307);
#178=LINE('',#1441,#308);
#179=LINE('',#1442,#309);
#180=LINE('',#1445,#310);
#181=LINE('',#1446,#311);
#182=LINE('',#1448,#312);
#183=LINE('',#1453,#313);
#184=LINE('',#1455,#314);
#185=LINE('',#1457,#315);
#186=LINE('',#1458,#316);
#187=LINE('',#1461,#317);
#188=LINE('',#1463,#318);
#189=LINE('',#1464,#319);
#190=LINE('',#1467,#320);
#191=LINE('',#1469,#321);
#192=LINE('',#1470,#322);
#193=LINE('',#1473,#323);
#194=LINE('',#1475,#324);
#195=LINE('',#1477,#325);
#196=LINE('',#1479,#326);
#197=LINE('',#1481,#327);
#198=LINE('',#1483,#328);
#199=LINE('',#1485,#329);
#200=LINE('',#1487,#330);
#201=LINE('',#1489,#331);
#202=LINE('',#1491,#332);
#203=LINE('',#1493,#333);
#204=LINE('',#1495,#334);
#205=LINE('',#1496,#335);
#206=LINE('',#1499,#336);
#207=LINE('',#1500,#337);
#208=LINE('',#1503,#338);
#209=LINE('',#1504,#339);
#210=LINE('',#1507,#340);
#211=LINE('',#1508,#341);
#212=LINE('',#1511,#342);
#213=LINE('',#1513,#343);
#214=LINE('',#1515,#344);
#215=LINE('',#1517,#345);
#216=LINE('',#1519,#346);
#217=LINE('',#1521,#347);
#218=LINE('',#1523,#348);
#219=LINE('',#1525,#349);
#220=LINE('',#1527,#350);
#221=LINE('',#1528,#351);
#222=LINE('',#1530,#352);
#223=LINE('',#1532,#353);
#224=LINE('',#1533,#354);
#225=LINE('',#1535,#355);
#226=LINE('',#1538,#356);
#227=LINE('',#1540,#357);
#228=LINE('',#1541,#358);
#229=LINE('',#1544,#359);
#230=LINE('',#1546,#360);
#231=LINE('',#1551,#361);
#232=LINE('',#1553,#362);
#233=LINE('',#1555,#363);
#234=LINE('',#1556,#364);
#235=LINE('',#1559,#365);
#236=LINE('',#1561,#366);
#237=LINE('',#1562,#367);
#238=LINE('',#1565,#368);
#239=LINE('',#1567,#369);
#240=LINE('',#1568,#370);
#241=LINE('',#1574,#371);
#242=LINE('',#1577,#372);
#243=LINE('',#1579,#373);
#244=LINE('',#1580,#374);
#245=LINE('',#1582,#375);
#246=LINE('',#1583,#376);
#247=LINE('',#1589,#377);
#248=LINE('',#1591,#378);
#249=LINE('',#1593,#379);
#250=LINE('',#1594,#380);
#251=LINE('',#1600,#381);
#252=LINE('',#1603,#382);
#253=LINE('',#1605,#383);
#254=LINE('',#1606,#384);
#255=LINE('',#1609,#385);
#256=LINE('',#1611,#386);
#257=LINE('',#1612,#387);
#258=LINE('',#1615,#388);
#259=LINE('',#1617,#389);
#260=LINE('',#1618,#390);
#261=LINE('',#1620,#391);
#262=LINE('',#1621,#392);
#263=LINE('',#1627,#393);
#264=LINE('',#1629,#394);
#265=LINE('',#1631,#395);
#266=LINE('',#1632,#396);
#267=LINE('',#1635,#397);
#268=LINE('',#1637,#398);
#269=LINE('',#1638,#399);
#270=LINE('',#1641,#400);
#271=LINE('',#1643,#401);
#272=LINE('',#1644,#402);
#273=LINE('',#1650,#403);
#274=LINE('',#1652,#404);
#275=LINE('',#1653,#405);
#276=LINE('',#1659,#406);
#277=LINE('',#1661,#407);
#278=LINE('',#1663,#408);
#279=LINE('',#1664,#409);
#280=LINE('',#1667,#410);
#281=LINE('',#1669,#411);
#282=LINE('',#1670,#412);
#283=LINE('',#1676,#413);
#284=LINE('',#1679,#414);
#285=LINE('',#1681,#415);
#286=LINE('',#1682,#416);
#287=LINE('',#1684,#417);
#288=LINE('',#1685,#418);
#289=VECTOR('',#1133,10.);
#290=VECTOR('',#1134,10.);
#291=VECTOR('',#1135,10.);
#292=VECTOR('',#1136,10.);
#293=VECTOR('',#1139,10.);
#294=VECTOR('',#1140,10.);
#295=VECTOR('',#1141,10.);
#296=VECTOR('',#1144,10.);
#297=VECTOR('',#1145,10.);
#298=VECTOR('',#1148,10.);
#299=VECTOR('',#1149,10.);
#300=VECTOR('',#1152,10.);
#301=VECTOR('',#1157,10.);
#302=VECTOR('',#1158,10.);
#303=VECTOR('',#1159,10.);
#304=VECTOR('',#1160,10.);
#305=VECTOR('',#1163,10.);
#306=VECTOR('',#1164,10.);
#307=VECTOR('',#1165,10.);
#308=VECTOR('',#1168,10.);
#309=VECTOR('',#1169,10.);
#310=VECTOR('',#1172,10.);
#311=VECTOR('',#1173,10.);
#312=VECTOR('',#1176,10.);
#313=VECTOR('',#1181,10.);
#314=VECTOR('',#1182,10.);
#315=VECTOR('',#1183,10.);
#316=VECTOR('',#1184,10.);
#317=VECTOR('',#1187,10.);
#318=VECTOR('',#1188,10.);
#319=VECTOR('',#1189,10.);
#320=VECTOR('',#1192,10.);
#321=VECTOR('',#1193,10.);
#322=VECTOR('',#1194,10.);
#323=VECTOR('',#1197,10.);
#324=VECTOR('',#1198,10.);
#325=VECTOR('',#1199,10.);
#326=VECTOR('',#1200,10.);
#327=VECTOR('',#1201,10.);
#328=VECTOR('',#1202,10.);
#329=VECTOR('',#1203,10.);
#330=VECTOR('',#1204,10.);
#331=VECTOR('',#1205,10.);
#332=VECTOR('',#1206,10.);
#333=VECTOR('',#1207,10.);
#334=VECTOR('',#1208,10.);
#335=VECTOR('',#1209,10.);
#336=VECTOR('',#1212,10.);
#337=VECTOR('',#1213,10.);
#338=VECTOR('',#1216,10.);
#339=VECTOR('',#1217,10.);
#340=VECTOR('',#1220,10.);
#341=VECTOR('',#1221,10.);
#342=VECTOR('',#1224,10.);
#343=VECTOR('',#1225,10.);
#344=VECTOR('',#1226,10.);
#345=VECTOR('',#1227,10.);
#346=VECTOR('',#1228,10.);
#347=VECTOR('',#1229,10.);
#348=VECTOR('',#1230,10.);
#349=VECTOR('',#1231,10.);
#350=VECTOR('',#1232,10.);
#351=VECTOR('',#1233,10.);
#352=VECTOR('',#1236,10.);
#353=VECTOR('',#1239,10.);
#354=VECTOR('',#1240,10.);
#355=VECTOR('',#1243,10.);
#356=VECTOR('',#1248,10.);
#357=VECTOR('',#1251,10.);
#358=VECTOR('',#1252,10.);
#359=VECTOR('',#1257,10.);
#360=VECTOR('',#1260,10.);
#361=VECTOR('',#1265,10.);
#362=VECTOR('',#1266,10.);
#363=VECTOR('',#1267,10.);
#364=VECTOR('',#1268,10.);
#365=VECTOR('',#1271,10.);
#366=VECTOR('',#1272,10.);
#367=VECTOR('',#1273,10.);
#368=VECTOR('',#1276,10.);
#369=VECTOR('',#1277,10.);
#370=VECTOR('',#1278,10.);
#371=VECTOR('',#1285,10.);
#372=VECTOR('',#1288,10.);
#373=VECTOR('',#1289,10.);
#374=VECTOR('',#1290,10.);
#375=VECTOR('',#1293,10.);
#376=VECTOR('',#1294,10.);
#377=VECTOR('',#1301,10.);
#378=VECTOR('',#1302,10.);
#379=VECTOR('',#1303,10.);
#380=VECTOR('',#1304,10.);
#381=VECTOR('',#1311,10.);
#382=VECTOR('',#1314,10.);
#383=VECTOR('',#1315,10.);
#384=VECTOR('',#1316,10.);
#385=VECTOR('',#1319,10.);
#386=VECTOR('',#1320,10.);
#387=VECTOR('',#1321,10.);
#388=VECTOR('',#1324,10.);
#389=VECTOR('',#1325,10.);
#390=VECTOR('',#1326,10.);
#391=VECTOR('',#1329,10.);
#392=VECTOR('',#1330,10.);
#393=VECTOR('',#1337,10.);
#394=VECTOR('',#1338,10.);
#395=VECTOR('',#1339,10.);
#396=VECTOR('',#1340,10.);
#397=VECTOR('',#1343,10.);
#398=VECTOR('',#1344,10.);
#399=VECTOR('',#1345,10.);
#400=VECTOR('',#1348,10.);
#401=VECTOR('',#1349,10.);
#402=VECTOR('',#1350,10.);
#403=VECTOR('',#1357,10.);
#404=VECTOR('',#1360,10.);
#405=VECTOR('',#1361,10.);
#406=VECTOR('',#1368,10.);
#407=VECTOR('',#1369,10.);
#408=VECTOR('',#1370,10.);
#409=VECTOR('',#1371,10.);
#410=VECTOR('',#1374,10.);
#411=VECTOR('',#1375,10.);
#412=VECTOR('',#1376,10.);
#413=VECTOR('',#1383,10.);
#414=VECTOR('',#1386,10.);
#415=VECTOR('',#1387,10.);
#416=VECTOR('',#1388,10.);
#417=VECTOR('',#1391,10.);
#418=VECTOR('',#1392,10.);
#419=VERTEX_POINT('',#1399);
#420=VERTEX_POINT('',#1400);
#421=VERTEX_POINT('',#1402);
#422=VERTEX_POINT('',#1404);
#423=VERTEX_POINT('',#1408);
#424=VERTEX_POINT('',#1410);
#425=VERTEX_POINT('',#1414);
#426=VERTEX_POINT('',#1418);
#427=VERTEX_POINT('',#1425);
#428=VERTEX_POINT('',#1426);
#429=VERTEX_POINT('',#1428);
#430=VERTEX_POINT('',#1430);
#431=VERTEX_POINT('',#1434);
#432=VERTEX_POINT('',#1436);
#433=VERTEX_POINT('',#1440);
#434=VERTEX_POINT('',#1444);
#435=VERTEX_POINT('',#1451);
#436=VERTEX_POINT('',#1452);
#437=VERTEX_POINT('',#1454);
#438=VERTEX_POINT('',#1456);
#439=VERTEX_POINT('',#1460);
#440=VERTEX_POINT('',#1462);
#441=VERTEX_POINT('',#1466);
#442=VERTEX_POINT('',#1468);
#443=VERTEX_POINT('',#1472);
#444=VERTEX_POINT('',#1474);
#445=VERTEX_POINT('',#1476);
#446=VERTEX_POINT('',#1478);
#447=VERTEX_POINT('',#1480);
#448=VERTEX_POINT('',#1482);
#449=VERTEX_POINT('',#1484);
#450=VERTEX_POINT('',#1486);
#451=VERTEX_POINT('',#1488);
#452=VERTEX_POINT('',#1490);
#453=VERTEX_POINT('',#1492);
#454=VERTEX_POINT('',#1494);
#455=VERTEX_POINT('',#1498);
#456=VERTEX_POINT('',#1502);
#457=VERTEX_POINT('',#1506);
#458=VERTEX_POINT('',#1510);
#459=VERTEX_POINT('',#1512);
#460=VERTEX_POINT('',#1514);
#461=VERTEX_POINT('',#1516);
#462=VERTEX_POINT('',#1518);
#463=VERTEX_POINT('',#1520);
#464=VERTEX_POINT('',#1522);
#465=VERTEX_POINT('',#1524);
#466=VERTEX_POINT('',#1526);
#467=VERTEX_POINT('',#1549);
#468=VERTEX_POINT('',#1550);
#469=VERTEX_POINT('',#1552);
#470=VERTEX_POINT('',#1554);
#471=VERTEX_POINT('',#1558);
#472=VERTEX_POINT('',#1560);
#473=VERTEX_POINT('',#1564);
#474=VERTEX_POINT('',#1566);
#475=VERTEX_POINT('',#1570);
#476=VERTEX_POINT('',#1572);
#477=VERTEX_POINT('',#1576);
#478=VERTEX_POINT('',#1578);
#479=VERTEX_POINT('',#1587);
#480=VERTEX_POINT('',#1588);
#481=VERTEX_POINT('',#1590);
#482=VERTEX_POINT('',#1592);
#483=VERTEX_POINT('',#1596);
#484=VERTEX_POINT('',#1598);
#485=VERTEX_POINT('',#1602);
#486=VERTEX_POINT('',#1604);
#487=VERTEX_POINT('',#1608);
#488=VERTEX_POINT('',#1610);
#489=VERTEX_POINT('',#1614);
#490=VERTEX_POINT('',#1616);
#491=VERTEX_POINT('',#1625);
#492=VERTEX_POINT('',#1626);
#493=VERTEX_POINT('',#1628);
#494=VERTEX_POINT('',#1630);
#495=VERTEX_POINT('',#1634);
#496=VERTEX_POINT('',#1636);
#497=VERTEX_POINT('',#1640);
#498=VERTEX_POINT('',#1642);
#499=VERTEX_POINT('',#1646);
#500=VERTEX_POINT('',#1648);
#501=VERTEX_POINT('',#1657);
#502=VERTEX_POINT('',#1658);
#503=VERTEX_POINT('',#1660);
#504=VERTEX_POINT('',#1662);
#505=VERTEX_POINT('',#1666);
#506=VERTEX_POINT('',#1668);
#507=VERTEX_POINT('',#1672);
#508=VERTEX_POINT('',#1674);
#509=VERTEX_POINT('',#1678);
#510=VERTEX_POINT('',#1680);
#511=EDGE_CURVE('',#419,#420,#159,.T.);
#512=EDGE_CURVE('',#421,#419,#160,.T.);
#513=EDGE_CURVE('',#422,#421,#161,.T.);
#514=EDGE_CURVE('',#420,#422,#162,.T.);
#515=EDGE_CURVE('',#419,#423,#163,.T.);
#516=EDGE_CURVE('',#423,#424,#164,.T.);
#517=EDGE_CURVE('',#424,#421,#165,.T.);
#518=EDGE_CURVE('',#425,#420,#166,.T.);
#519=EDGE_CURVE('',#423,#425,#167,.T.);
#520=EDGE_CURVE('',#422,#426,#168,.T.);
#521=EDGE_CURVE('',#426,#425,#169,.T.);
#522=EDGE_CURVE('',#426,#424,#170,.T.);
#523=EDGE_CURVE('',#427,#428,#171,.F.);
#524=EDGE_CURVE('',#429,#427,#172,.F.);
#525=EDGE_CURVE('',#430,#429,#173,.F.);
#526=EDGE_CURVE('',#428,#430,#174,.F.);
#527=EDGE_CURVE('',#427,#431,#175,.F.);
#528=EDGE_CURVE('',#432,#431,#176,.F.);
#529=EDGE_CURVE('',#429,#432,#177,.T.);
#530=EDGE_CURVE('',#428,#433,#178,.F.);
#531=EDGE_CURVE('',#431,#433,#179,.F.);
#532=EDGE_CURVE('',#434,#432,#180,.F.);
#533=EDGE_CURVE('',#430,#434,#181,.F.);
#534=EDGE_CURVE('',#433,#434,#182,.F.);
#535=EDGE_CURVE('',#435,#436,#183,.T.);
#536=EDGE_CURVE('',#435,#437,#184,.T.);
#537=EDGE_CURVE('',#438,#437,#185,.T.);
#538=EDGE_CURVE('',#436,#438,#186,.T.);
#539=EDGE_CURVE('',#439,#435,#187,.T.);
#540=EDGE_CURVE('',#440,#439,#188,.T.);
#541=EDGE_CURVE('',#437,#440,#189,.T.);
#542=EDGE_CURVE('',#441,#438,#190,.F.);
#543=EDGE_CURVE('',#441,#442,#191,.T.);
#544=EDGE_CURVE('',#442,#436,#192,.T.);
#545=EDGE_CURVE('',#442,#443,#193,.T.);
#546=EDGE_CURVE('',#443,#444,#194,.T.);
#547=EDGE_CURVE('',#444,#445,#195,.T.);
#548=EDGE_CURVE('',#446,#445,#196,.T.);
#549=EDGE_CURVE('',#446,#447,#197,.T.);
#550=EDGE_CURVE('',#447,#448,#198,.T.);
#551=EDGE_CURVE('',#448,#449,#199,.T.);
#552=EDGE_CURVE('',#450,#449,#200,.T.);
#553=EDGE_CURVE('',#450,#451,#201,.T.);
#554=EDGE_CURVE('',#451,#452,#202,.T.);
#555=EDGE_CURVE('',#453,#452,#203,.T.);
#556=EDGE_CURVE('',#454,#453,#204,.T.);
#557=EDGE_CURVE('',#454,#439,#205,.F.);
#558=EDGE_CURVE('',#455,#441,#206,.T.);
#559=EDGE_CURVE('',#443,#455,#207,.T.);
#560=EDGE_CURVE('',#456,#455,#208,.T.);
#561=EDGE_CURVE('',#444,#456,#209,.T.);
#562=EDGE_CURVE('',#445,#457,#210,.T.);
#563=EDGE_CURVE('',#457,#456,#211,.T.);
#564=EDGE_CURVE('',#440,#458,#212,.F.);
#565=EDGE_CURVE('',#458,#459,#213,.F.);
#566=EDGE_CURVE('',#459,#460,#214,.F.);
#567=EDGE_CURVE('',#460,#461,#215,.T.);
#568=EDGE_CURVE('',#461,#462,#216,.T.);
#569=EDGE_CURVE('',#462,#463,#217,.F.);
#570=EDGE_CURVE('',#463,#464,#218,.T.);
#571=EDGE_CURVE('',#464,#465,#219,.T.);
#572=EDGE_CURVE('',#465,#466,#220,.T.);
#573=EDGE_CURVE('',#466,#457,#221,.F.);
#574=EDGE_CURVE('',#466,#446,#222,.T.);
#575=EDGE_CURVE('',#447,#465,#223,.T.);
#576=EDGE_CURVE('',#448,#464,#224,.T.);
#577=EDGE_CURVE('',#449,#463,#225,.T.);
#578=EDGE_CURVE('',#462,#450,#226,.T.);
#579=EDGE_CURVE('',#451,#461,#227,.T.);
#580=EDGE_CURVE('',#452,#460,#228,.T.);
#581=EDGE_CURVE('',#453,#459,#229,.T.);
#582=EDGE_CURVE('',#454,#458,#230,.F.);
#583=EDGE_CURVE('',#467,#468,#231,.T.);
#584=EDGE_CURVE('',#468,#469,#232,.T.);
#585=EDGE_CURVE('',#470,#469,#233,.T.);
#586=EDGE_CURVE('',#467,#470,#234,.T.);
#587=EDGE_CURVE('',#471,#467,#235,.T.);
#588=EDGE_CURVE('',#472,#470,#236,.T.);
#589=EDGE_CURVE('',#471,#472,#237,.T.);
#590=EDGE_CURVE('',#473,#471,#238,.T.);
#591=EDGE_CURVE('',#474,#472,#239,.T.);
#592=EDGE_CURVE('',#473,#474,#240,.T.);
#593=EDGE_CURVE('',#475,#473,#13,.T.);
#594=EDGE_CURVE('',#476,#474,#14,.T.);
#595=EDGE_CURVE('',#475,#476,#241,.T.);
#596=EDGE_CURVE('',#477,#475,#242,.T.);
#597=EDGE_CURVE('',#478,#476,#243,.T.);
#598=EDGE_CURVE('',#477,#478,#244,.T.);
#599=EDGE_CURVE('',#477,#468,#245,.T.);
#600=EDGE_CURVE('',#469,#478,#246,.T.);
#601=EDGE_CURVE('',#479,#480,#247,.T.);
#602=EDGE_CURVE('',#480,#481,#248,.T.);
#603=EDGE_CURVE('',#482,#481,#249,.T.);
#604=EDGE_CURVE('',#479,#482,#250,.T.);
#605=EDGE_CURVE('',#483,#479,#15,.T.);
#606=EDGE_CURVE('',#484,#482,#16,.T.);
#607=EDGE_CURVE('',#483,#484,#251,.T.);
#608=EDGE_CURVE('',#485,#483,#252,.T.);
#609=EDGE_CURVE('',#486,#484,#253,.T.);
#610=EDGE_CURVE('',#485,#486,#254,.T.);
#611=EDGE_CURVE('',#487,#485,#255,.T.);
#612=EDGE_CURVE('',#488,#486,#256,.T.);
#613=EDGE_CURVE('',#487,#488,#257,.T.);
#614=EDGE_CURVE('',#489,#487,#258,.T.);
#615=EDGE_CURVE('',#490,#488,#259,.T.);
#616=EDGE_CURVE('',#489,#490,#260,.T.);
#617=EDGE_CURVE('',#489,#480,#261,.T.);
#618=EDGE_CURVE('',#481,#490,#262,.T.);
#619=EDGE_CURVE('',#491,#492,#263,.T.);
#620=EDGE_CURVE('',#492,#493,#264,.T.);
#621=EDGE_CURVE('',#494,#493,#265,.T.);
#622=EDGE_CURVE('',#491,#494,#266,.T.);
#623=EDGE_CURVE('',#495,#491,#267,.T.);
#624=EDGE_CURVE('',#496,#494,#268,.T.);
#625=EDGE_CURVE('',#495,#496,#269,.T.);
#626=EDGE_CURVE('',#497,#495,#270,.T.);
#627=EDGE_CURVE('',#498,#496,#271,.T.);
#628=EDGE_CURVE('',#497,#498,#272,.T.);
#629=EDGE_CURVE('',#499,#497,#17,.T.);
#630=EDGE_CURVE('',#500,#498,#18,.T.);
#631=EDGE_CURVE('',#499,#500,#273,.T.);
#632=EDGE_CURVE('',#492,#499,#274,.T.);
#633=EDGE_CURVE('',#493,#500,#275,.T.);
#634=EDGE_CURVE('',#501,#502,#276,.T.);
#635=EDGE_CURVE('',#502,#503,#277,.T.);
#636=EDGE_CURVE('',#504,#503,#278,.T.);
#637=EDGE_CURVE('',#501,#504,#279,.T.);
#638=EDGE_CURVE('',#505,#501,#280,.T.);
#639=EDGE_CURVE('',#506,#504,#281,.T.);
#640=EDGE_CURVE('',#505,#506,#282,.T.);
#641=EDGE_CURVE('',#507,#505,#19,.T.);
#642=EDGE_CURVE('',#508,#506,#20,.T.);
#643=EDGE_CURVE('',#507,#508,#283,.T.);
#644=EDGE_CURVE('',#509,#507,#284,.T.);
#645=EDGE_CURVE('',#510,#508,#285,.T.);
#646=EDGE_CURVE('',#509,#510,#286,.T.);
#647=EDGE_CURVE('',#502,#509,#287,.T.);
#648=EDGE_CURVE('',#503,#510,#288,.T.);
#649=ORIENTED_EDGE('',*,*,#511,.F.);
#650=ORIENTED_EDGE('',*,*,#512,.F.);
#651=ORIENTED_EDGE('',*,*,#513,.F.);
#652=ORIENTED_EDGE('',*,*,#514,.F.);
#653=ORIENTED_EDGE('',*,*,#512,.T.);
#654=ORIENTED_EDGE('',*,*,#515,.T.);
#655=ORIENTED_EDGE('',*,*,#516,.T.);
#656=ORIENTED_EDGE('',*,*,#517,.T.);
#657=ORIENTED_EDGE('',*,*,#511,.T.);
#658=ORIENTED_EDGE('',*,*,#518,.F.);
#659=ORIENTED_EDGE('',*,*,#519,.F.);
#660=ORIENTED_EDGE('',*,*,#515,.F.);
#661=ORIENTED_EDGE('',*,*,#514,.T.);
#662=ORIENTED_EDGE('',*,*,#520,.T.);
#663=ORIENTED_EDGE('',*,*,#521,.T.);
#664=ORIENTED_EDGE('',*,*,#518,.T.);
#665=ORIENTED_EDGE('',*,*,#513,.T.);
#666=ORIENTED_EDGE('',*,*,#517,.F.);
#667=ORIENTED_EDGE('',*,*,#522,.F.);
#668=ORIENTED_EDGE('',*,*,#520,.F.);
#669=ORIENTED_EDGE('',*,*,#522,.T.);
#670=ORIENTED_EDGE('',*,*,#516,.F.);
#671=ORIENTED_EDGE('',*,*,#519,.T.);
#672=ORIENTED_EDGE('',*,*,#521,.F.);
#673=ORIENTED_EDGE('',*,*,#523,.F.);
#674=ORIENTED_EDGE('',*,*,#524,.F.);
#675=ORIENTED_EDGE('',*,*,#525,.F.);
#676=ORIENTED_EDGE('',*,*,#526,.F.);
#677=ORIENTED_EDGE('',*,*,#524,.T.);
#678=ORIENTED_EDGE('',*,*,#527,.T.);
#679=ORIENTED_EDGE('',*,*,#528,.F.);
#680=ORIENTED_EDGE('',*,*,#529,.F.);
#681=ORIENTED_EDGE('',*,*,#523,.T.);
#682=ORIENTED_EDGE('',*,*,#530,.T.);
#683=ORIENTED_EDGE('',*,*,#531,.F.);
#684=ORIENTED_EDGE('',*,*,#527,.F.);
#685=ORIENTED_EDGE('',*,*,#525,.T.);
#686=ORIENTED_EDGE('',*,*,#529,.T.);
#687=ORIENTED_EDGE('',*,*,#532,.F.);
#688=ORIENTED_EDGE('',*,*,#533,.F.);
#689=ORIENTED_EDGE('',*,*,#526,.T.);
#690=ORIENTED_EDGE('',*,*,#533,.T.);
#691=ORIENTED_EDGE('',*,*,#534,.F.);
#692=ORIENTED_EDGE('',*,*,#530,.F.);
#693=ORIENTED_EDGE('',*,*,#531,.T.);
#694=ORIENTED_EDGE('',*,*,#534,.T.);
#695=ORIENTED_EDGE('',*,*,#532,.T.);
#696=ORIENTED_EDGE('',*,*,#528,.T.);
#697=ORIENTED_EDGE('',*,*,#535,.F.);
#698=ORIENTED_EDGE('',*,*,#536,.T.);
#699=ORIENTED_EDGE('',*,*,#537,.F.);
#700=ORIENTED_EDGE('',*,*,#538,.F.);
#701=ORIENTED_EDGE('',*,*,#539,.F.);
#702=ORIENTED_EDGE('',*,*,#540,.F.);
#703=ORIENTED_EDGE('',*,*,#541,.F.);
#704=ORIENTED_EDGE('',*,*,#536,.F.);
#705=ORIENTED_EDGE('',*,*,#538,.T.);
#706=ORIENTED_EDGE('',*,*,#542,.F.);
#707=ORIENTED_EDGE('',*,*,#543,.T.);
#708=ORIENTED_EDGE('',*,*,#544,.T.);
#709=ORIENTED_EDGE('',*,*,#539,.T.);
#710=ORIENTED_EDGE('',*,*,#535,.T.);
#711=ORIENTED_EDGE('',*,*,#544,.F.);
#712=ORIENTED_EDGE('',*,*,#545,.T.);
#713=ORIENTED_EDGE('',*,*,#546,.T.);
#714=ORIENTED_EDGE('',*,*,#547,.T.);
#715=ORIENTED_EDGE('',*,*,#548,.F.);
#716=ORIENTED_EDGE('',*,*,#549,.T.);
#717=ORIENTED_EDGE('',*,*,#550,.T.);
#718=ORIENTED_EDGE('',*,*,#551,.T.);
#719=ORIENTED_EDGE('',*,*,#552,.F.);
#720=ORIENTED_EDGE('',*,*,#553,.T.);
#721=ORIENTED_EDGE('',*,*,#554,.T.);
#722=ORIENTED_EDGE('',*,*,#555,.F.);
#723=ORIENTED_EDGE('',*,*,#556,.F.);
#724=ORIENTED_EDGE('',*,*,#557,.T.);
#725=ORIENTED_EDGE('',*,*,#543,.F.);
#726=ORIENTED_EDGE('',*,*,#558,.F.);
#727=ORIENTED_EDGE('',*,*,#559,.F.);
#728=ORIENTED_EDGE('',*,*,#545,.F.);
#729=ORIENTED_EDGE('',*,*,#546,.F.);
#730=ORIENTED_EDGE('',*,*,#559,.T.);
#731=ORIENTED_EDGE('',*,*,#560,.F.);
#732=ORIENTED_EDGE('',*,*,#561,.F.);
#733=ORIENTED_EDGE('',*,*,#562,.F.);
#734=ORIENTED_EDGE('',*,*,#547,.F.);
#735=ORIENTED_EDGE('',*,*,#561,.T.);
#736=ORIENTED_EDGE('',*,*,#563,.F.);
#737=ORIENTED_EDGE('',*,*,#541,.T.);
#738=ORIENTED_EDGE('',*,*,#564,.T.);
#739=ORIENTED_EDGE('',*,*,#565,.T.);
#740=ORIENTED_EDGE('',*,*,#566,.T.);
#741=ORIENTED_EDGE('',*,*,#567,.T.);
#742=ORIENTED_EDGE('',*,*,#568,.T.);
#743=ORIENTED_EDGE('',*,*,#569,.T.);
#744=ORIENTED_EDGE('',*,*,#570,.T.);
#745=ORIENTED_EDGE('',*,*,#571,.T.);
#746=ORIENTED_EDGE('',*,*,#572,.T.);
#747=ORIENTED_EDGE('',*,*,#573,.T.);
#748=ORIENTED_EDGE('',*,*,#563,.T.);
#749=ORIENTED_EDGE('',*,*,#560,.T.);
#750=ORIENTED_EDGE('',*,*,#558,.T.);
#751=ORIENTED_EDGE('',*,*,#542,.T.);
#752=ORIENTED_EDGE('',*,*,#537,.T.);
#753=ORIENTED_EDGE('',*,*,#562,.T.);
#754=ORIENTED_EDGE('',*,*,#573,.F.);
#755=ORIENTED_EDGE('',*,*,#574,.T.);
#756=ORIENTED_EDGE('',*,*,#548,.T.);
#757=ORIENTED_EDGE('',*,*,#550,.F.);
#758=ORIENTED_EDGE('',*,*,#575,.T.);
#759=ORIENTED_EDGE('',*,*,#571,.F.);
#760=ORIENTED_EDGE('',*,*,#576,.F.);
#761=ORIENTED_EDGE('',*,*,#551,.F.);
#762=ORIENTED_EDGE('',*,*,#576,.T.);
#763=ORIENTED_EDGE('',*,*,#570,.F.);
#764=ORIENTED_EDGE('',*,*,#577,.F.);
#765=ORIENTED_EDGE('',*,*,#549,.F.);
#766=ORIENTED_EDGE('',*,*,#574,.F.);
#767=ORIENTED_EDGE('',*,*,#572,.F.);
#768=ORIENTED_EDGE('',*,*,#575,.F.);
#769=ORIENTED_EDGE('',*,*,#577,.T.);
#770=ORIENTED_EDGE('',*,*,#569,.F.);
#771=ORIENTED_EDGE('',*,*,#578,.T.);
#772=ORIENTED_EDGE('',*,*,#552,.T.);
#773=ORIENTED_EDGE('',*,*,#554,.F.);
#774=ORIENTED_EDGE('',*,*,#579,.T.);
#775=ORIENTED_EDGE('',*,*,#567,.F.);
#776=ORIENTED_EDGE('',*,*,#580,.F.);
#777=ORIENTED_EDGE('',*,*,#553,.F.);
#778=ORIENTED_EDGE('',*,*,#578,.F.);
#779=ORIENTED_EDGE('',*,*,#568,.F.);
#780=ORIENTED_EDGE('',*,*,#579,.F.);
#781=ORIENTED_EDGE('',*,*,#580,.T.);
#782=ORIENTED_EDGE('',*,*,#566,.F.);
#783=ORIENTED_EDGE('',*,*,#581,.F.);
#784=ORIENTED_EDGE('',*,*,#555,.T.);
#785=ORIENTED_EDGE('',*,*,#556,.T.);
#786=ORIENTED_EDGE('',*,*,#581,.T.);
#787=ORIENTED_EDGE('',*,*,#565,.F.);
#788=ORIENTED_EDGE('',*,*,#582,.F.);
#789=ORIENTED_EDGE('',*,*,#540,.T.);
#790=ORIENTED_EDGE('',*,*,#557,.F.);
#791=ORIENTED_EDGE('',*,*,#582,.T.);
#792=ORIENTED_EDGE('',*,*,#564,.F.);
#793=ORIENTED_EDGE('',*,*,#583,.T.);
#794=ORIENTED_EDGE('',*,*,#584,.T.);
#795=ORIENTED_EDGE('',*,*,#585,.F.);
#796=ORIENTED_EDGE('',*,*,#586,.F.);
#797=ORIENTED_EDGE('',*,*,#587,.T.);
#798=ORIENTED_EDGE('',*,*,#586,.T.);
#799=ORIENTED_EDGE('',*,*,#588,.F.);
#800=ORIENTED_EDGE('',*,*,#589,.F.);
#801=ORIENTED_EDGE('',*,*,#590,.T.);
#802=ORIENTED_EDGE('',*,*,#589,.T.);
#803=ORIENTED_EDGE('',*,*,#591,.F.);
#804=ORIENTED_EDGE('',*,*,#592,.F.);
#805=ORIENTED_EDGE('',*,*,#593,.T.);
#806=ORIENTED_EDGE('',*,*,#592,.T.);
#807=ORIENTED_EDGE('',*,*,#594,.F.);
#808=ORIENTED_EDGE('',*,*,#595,.F.);
#809=ORIENTED_EDGE('',*,*,#596,.T.);
#810=ORIENTED_EDGE('',*,*,#595,.T.);
#811=ORIENTED_EDGE('',*,*,#597,.F.);
#812=ORIENTED_EDGE('',*,*,#598,.F.);
#813=ORIENTED_EDGE('',*,*,#599,.F.);
#814=ORIENTED_EDGE('',*,*,#598,.T.);
#815=ORIENTED_EDGE('',*,*,#600,.F.);
#816=ORIENTED_EDGE('',*,*,#584,.F.);
#817=ORIENTED_EDGE('',*,*,#599,.T.);
#818=ORIENTED_EDGE('',*,*,#583,.F.);
#819=ORIENTED_EDGE('',*,*,#587,.F.);
#820=ORIENTED_EDGE('',*,*,#590,.F.);
#821=ORIENTED_EDGE('',*,*,#593,.F.);
#822=ORIENTED_EDGE('',*,*,#596,.F.);
#823=ORIENTED_EDGE('',*,*,#600,.T.);
#824=ORIENTED_EDGE('',*,*,#597,.T.);
#825=ORIENTED_EDGE('',*,*,#594,.T.);
#826=ORIENTED_EDGE('',*,*,#591,.T.);
#827=ORIENTED_EDGE('',*,*,#588,.T.);
#828=ORIENTED_EDGE('',*,*,#585,.T.);
#829=ORIENTED_EDGE('',*,*,#601,.T.);
#830=ORIENTED_EDGE('',*,*,#602,.T.);
#831=ORIENTED_EDGE('',*,*,#603,.F.);
#832=ORIENTED_EDGE('',*,*,#604,.F.);
#833=ORIENTED_EDGE('',*,*,#605,.T.);
#834=ORIENTED_EDGE('',*,*,#604,.T.);
#835=ORIENTED_EDGE('',*,*,#606,.F.);
#836=ORIENTED_EDGE('',*,*,#607,.F.);
#837=ORIENTED_EDGE('',*,*,#608,.T.);
#838=ORIENTED_EDGE('',*,*,#607,.T.);
#839=ORIENTED_EDGE('',*,*,#609,.F.);
#840=ORIENTED_EDGE('',*,*,#610,.F.);
#841=ORIENTED_EDGE('',*,*,#611,.T.);
#842=ORIENTED_EDGE('',*,*,#610,.T.);
#843=ORIENTED_EDGE('',*,*,#612,.F.);
#844=ORIENTED_EDGE('',*,*,#613,.F.);
#845=ORIENTED_EDGE('',*,*,#614,.T.);
#846=ORIENTED_EDGE('',*,*,#613,.T.);
#847=ORIENTED_EDGE('',*,*,#615,.F.);
#848=ORIENTED_EDGE('',*,*,#616,.F.);
#849=ORIENTED_EDGE('',*,*,#617,.F.);
#850=ORIENTED_EDGE('',*,*,#616,.T.);
#851=ORIENTED_EDGE('',*,*,#618,.F.);
#852=ORIENTED_EDGE('',*,*,#602,.F.);
#853=ORIENTED_EDGE('',*,*,#617,.T.);
#854=ORIENTED_EDGE('',*,*,#601,.F.);
#855=ORIENTED_EDGE('',*,*,#605,.F.);
#856=ORIENTED_EDGE('',*,*,#608,.F.);
#857=ORIENTED_EDGE('',*,*,#611,.F.);
#858=ORIENTED_EDGE('',*,*,#614,.F.);
#859=ORIENTED_EDGE('',*,*,#618,.T.);
#860=ORIENTED_EDGE('',*,*,#615,.T.);
#861=ORIENTED_EDGE('',*,*,#612,.T.);
#862=ORIENTED_EDGE('',*,*,#609,.T.);
#863=ORIENTED_EDGE('',*,*,#606,.T.);
#864=ORIENTED_EDGE('',*,*,#603,.T.);
#865=ORIENTED_EDGE('',*,*,#619,.T.);
#866=ORIENTED_EDGE('',*,*,#620,.T.);
#867=ORIENTED_EDGE('',*,*,#621,.F.);
#868=ORIENTED_EDGE('',*,*,#622,.F.);
#869=ORIENTED_EDGE('',*,*,#623,.T.);
#870=ORIENTED_EDGE('',*,*,#622,.T.);
#871=ORIENTED_EDGE('',*,*,#624,.F.);
#872=ORIENTED_EDGE('',*,*,#625,.F.);
#873=ORIENTED_EDGE('',*,*,#626,.T.);
#874=ORIENTED_EDGE('',*,*,#625,.T.);
#875=ORIENTED_EDGE('',*,*,#627,.F.);
#876=ORIENTED_EDGE('',*,*,#628,.F.);
#877=ORIENTED_EDGE('',*,*,#629,.T.);
#878=ORIENTED_EDGE('',*,*,#628,.T.);
#879=ORIENTED_EDGE('',*,*,#630,.F.);
#880=ORIENTED_EDGE('',*,*,#631,.F.);
#881=ORIENTED_EDGE('',*,*,#632,.T.);
#882=ORIENTED_EDGE('',*,*,#631,.T.);
#883=ORIENTED_EDGE('',*,*,#633,.F.);
#884=ORIENTED_EDGE('',*,*,#620,.F.);
#885=ORIENTED_EDGE('',*,*,#632,.F.);
#886=ORIENTED_EDGE('',*,*,#619,.F.);
#887=ORIENTED_EDGE('',*,*,#623,.F.);
#888=ORIENTED_EDGE('',*,*,#626,.F.);
#889=ORIENTED_EDGE('',*,*,#629,.F.);
#890=ORIENTED_EDGE('',*,*,#633,.T.);
#891=ORIENTED_EDGE('',*,*,#630,.T.);
#892=ORIENTED_EDGE('',*,*,#627,.T.);
#893=ORIENTED_EDGE('',*,*,#624,.T.);
#894=ORIENTED_EDGE('',*,*,#621,.T.);
#895=ORIENTED_EDGE('',*,*,#634,.T.);
#896=ORIENTED_EDGE('',*,*,#635,.T.);
#897=ORIENTED_EDGE('',*,*,#636,.F.);
#898=ORIENTED_EDGE('',*,*,#637,.F.);
#899=ORIENTED_EDGE('',*,*,#638,.T.);
#900=ORIENTED_EDGE('',*,*,#637,.T.);
#901=ORIENTED_EDGE('',*,*,#639,.F.);
#902=ORIENTED_EDGE('',*,*,#640,.F.);
#903=ORIENTED_EDGE('',*,*,#641,.T.);
#904=ORIENTED_EDGE('',*,*,#640,.T.);
#905=ORIENTED_EDGE('',*,*,#642,.F.);
#906=ORIENTED_EDGE('',*,*,#643,.F.);
#907=ORIENTED_EDGE('',*,*,#644,.T.);
#908=ORIENTED_EDGE('',*,*,#643,.T.);
#909=ORIENTED_EDGE('',*,*,#645,.F.);
#910=ORIENTED_EDGE('',*,*,#646,.F.);
#911=ORIENTED_EDGE('',*,*,#647,.T.);
#912=ORIENTED_EDGE('',*,*,#646,.T.);
#913=ORIENTED_EDGE('',*,*,#648,.F.);
#914=ORIENTED_EDGE('',*,*,#635,.F.);
#915=ORIENTED_EDGE('',*,*,#647,.F.);
#916=ORIENTED_EDGE('',*,*,#634,.F.);
#917=ORIENTED_EDGE('',*,*,#638,.F.);
#918=ORIENTED_EDGE('',*,*,#641,.F.);
#919=ORIENTED_EDGE('',*,*,#644,.F.);
#920=ORIENTED_EDGE('',*,*,#648,.T.);
#921=ORIENTED_EDGE('',*,*,#645,.T.);
#922=ORIENTED_EDGE('',*,*,#642,.T.);
#923=ORIENTED_EDGE('',*,*,#639,.T.);
#924=ORIENTED_EDGE('',*,*,#636,.T.);
#925=PLANE('',#1061);
#926=PLANE('',#1062);
#927=PLANE('',#1063);
#928=PLANE('',#1064);
#929=PLANE('',#1065);
#930=PLANE('',#1066);
#931=PLANE('',#1067);
#932=PLANE('',#1068);
#933=PLANE('',#1069);
#934=PLANE('',#1070);
#935=PLANE('',#1071);
#936=PLANE('',#1072);
#937=PLANE('',#1073);
#938=PLANE('',#1074);
#939=PLANE('',#1075);
#940=PLANE('',#1076);
#941=PLANE('',#1077);
#942=PLANE('',#1078);
#943=PLANE('',#1079);
#944=PLANE('',#1080);
#945=PLANE('',#1081);
#946=PLANE('',#1082);
#947=PLANE('',#1083);
#948=PLANE('',#1084);
#949=PLANE('',#1085);
#950=PLANE('',#1086);
#951=PLANE('',#1087);
#952=PLANE('',#1088);
#953=PLANE('',#1089);
#954=PLANE('',#1090);
#955=PLANE('',#1091);
#956=PLANE('',#1092);
#957=PLANE('',#1093);
#958=PLANE('',#1097);
#959=PLANE('',#1098);
#960=PLANE('',#1099);
#961=PLANE('',#1100);
#962=PLANE('',#1101);
#963=PLANE('',#1105);
#964=PLANE('',#1106);
#965=PLANE('',#1107);
#966=PLANE('',#1108);
#967=PLANE('',#1109);
#968=PLANE('',#1110);
#969=PLANE('',#1111);
#970=PLANE('',#1112);
#971=PLANE('',#1113);
#972=PLANE('',#1117);
#973=PLANE('',#1118);
#974=PLANE('',#1119);
#975=PLANE('',#1120);
#976=PLANE('',#1121);
#977=PLANE('',#1125);
#978=PLANE('',#1126);
#979=PLANE('',#1127);
#980=PLANE('',#1128);
#981=ADVANCED_FACE('',(#39),#925,.F.);
#982=ADVANCED_FACE('',(#40),#926,.T.);
#983=ADVANCED_FACE('',(#41),#927,.T.);
#984=ADVANCED_FACE('',(#42),#928,.T.);
#985=ADVANCED_FACE('',(#43),#929,.T.);
#986=ADVANCED_FACE('',(#44),#930,.T.);
#987=ADVANCED_FACE('',(#45),#931,.F.);
#988=ADVANCED_FACE('',(#46),#932,.T.);
#989=ADVANCED_FACE('',(#47),#933,.T.);
#990=ADVANCED_FACE('',(#48),#934,.T.);
#991=ADVANCED_FACE('',(#49),#935,.T.);
#992=ADVANCED_FACE('',(#50),#936,.T.);
#993=ADVANCED_FACE('',(#51),#937,.F.);
#994=ADVANCED_FACE('',(#52),#938,.F.);
#995=ADVANCED_FACE('',(#53),#939,.T.);
#996=ADVANCED_FACE('',(#54),#940,.T.);
#997=ADVANCED_FACE('',(#55),#941,.F.);
#998=ADVANCED_FACE('',(#56),#942,.F.);
#999=ADVANCED_FACE('',(#57),#943,.F.);
#1000=ADVANCED_FACE('',(#58),#944,.T.);
#1001=ADVANCED_FACE('',(#59),#945,.T.);
#1002=ADVANCED_FACE('',(#60),#946,.F.);
#1003=ADVANCED_FACE('',(#61),#947,.F.);
#1004=ADVANCED_FACE('',(#62),#948,.F.);
#1005=ADVANCED_FACE('',(#63),#949,.T.);
#1006=ADVANCED_FACE('',(#64),#950,.F.);
#1007=ADVANCED_FACE('',(#65),#951,.F.);
#1008=ADVANCED_FACE('',(#66),#952,.T.);
#1009=ADVANCED_FACE('',(#67),#953,.T.);
#1010=ADVANCED_FACE('',(#68),#954,.T.);
#1011=ADVANCED_FACE('',(#69),#955,.T.);
#1012=ADVANCED_FACE('',(#70),#956,.T.);
#1013=ADVANCED_FACE('',(#71),#957,.T.);
#1014=ADVANCED_FACE('',(#72),#21,.F.);
#1015=ADVANCED_FACE('',(#73),#958,.T.);
#1016=ADVANCED_FACE('',(#74),#959,.T.);
#1017=ADVANCED_FACE('',(#75),#960,.T.);
#1018=ADVANCED_FACE('',(#76),#961,.F.);
#1019=ADVANCED_FACE('',(#77),#962,.T.);
#1020=ADVANCED_FACE('',(#78),#22,.F.);
#1021=ADVANCED_FACE('',(#79),#963,.T.);
#1022=ADVANCED_FACE('',(#80),#964,.T.);
#1023=ADVANCED_FACE('',(#81),#965,.T.);
#1024=ADVANCED_FACE('',(#82),#966,.T.);
#1025=ADVANCED_FACE('',(#83),#967,.T.);
#1026=ADVANCED_FACE('',(#84),#968,.F.);
#1027=ADVANCED_FACE('',(#85),#969,.T.);
#1028=ADVANCED_FACE('',(#86),#970,.T.);
#1029=ADVANCED_FACE('',(#87),#971,.T.);
#1030=ADVANCED_FACE('',(#88),#23,.F.);
#1031=ADVANCED_FACE('',(#89),#972,.T.);
#1032=ADVANCED_FACE('',(#90),#973,.T.);
#1033=ADVANCED_FACE('',(#91),#974,.F.);
#1034=ADVANCED_FACE('',(#92),#975,.T.);
#1035=ADVANCED_FACE('',(#93),#976,.T.);
#1036=ADVANCED_FACE('',(#94),#24,.F.);
#1037=ADVANCED_FACE('',(#95),#977,.T.);
#1038=ADVANCED_FACE('',(#96),#978,.T.);
#1039=ADVANCED_FACE('',(#97),#979,.T.);
#1040=ADVANCED_FACE('',(#98),#980,.F.);
#1041=CLOSED_SHELL('',(#981,#982,#983,#984,#985,#986));
#1042=CLOSED_SHELL('',(#987,#988,#989,#990,#991,#992));
#1043=CLOSED_SHELL('',(#993,#994,#995,#996,#997,#998,#999,#1000,#1001,#1002,
#1003,#1004,#1005,#1006,#1007,#1008,#1009,#1010));
#1044=CLOSED_SHELL('',(#1011,#1012,#1013,#1014,#1015,#1016,#1017,#1018));
#1045=CLOSED_SHELL('',(#1019,#1020,#1021,#1022,#1023,#1024,#1025,#1026));
#1046=CLOSED_SHELL('',(#1027,#1028,#1029,#1030,#1031,#1032,#1033));
#1047=CLOSED_SHELL('',(#1034,#1035,#1036,#1037,#1038,#1039,#1040));
#1048=DERIVED_UNIT_ELEMENT(#1050,1.);
#1049=DERIVED_UNIT_ELEMENT(#1693,-3.);
#1050=(
MASS_UNIT()
NAMED_UNIT(*)
SI_UNIT(.KILO.,.GRAM.)
);
#1051=DERIVED_UNIT((#1048,#1049));
#1052=MEASURE_REPRESENTATION_ITEM('density measure',
POSITIVE_RATIO_MEASURE(7850.),#1051);
#1053=PROPERTY_DEFINITION_REPRESENTATION(#1058,#1055);
#1054=PROPERTY_DEFINITION_REPRESENTATION(#1059,#1056);
#1055=REPRESENTATION('material name',(#1057),#1690);
#1056=REPRESENTATION('density',(#1052),#1690);
#1057=DESCRIPTIVE_REPRESENTATION_ITEM('Steel','Steel');
#1058=PROPERTY_DEFINITION('material property','material name',#1700);
#1059=PROPERTY_DEFINITION('material property','density of part',#1700);
#1060=AXIS2_PLACEMENT_3D('',#1397,#1129,#1130);
#1061=AXIS2_PLACEMENT_3D('',#1398,#1131,#1132);
#1062=AXIS2_PLACEMENT_3D('',#1407,#1137,#1138);
#1063=AXIS2_PLACEMENT_3D('',#1413,#1142,#1143);
#1064=AXIS2_PLACEMENT_3D('',#1417,#1146,#1147);
#1065=AXIS2_PLACEMENT_3D('',#1421,#1150,#1151);
#1066=AXIS2_PLACEMENT_3D('',#1423,#1153,#1154);
#1067=AXIS2_PLACEMENT_3D('',#1424,#1155,#1156);
#1068=AXIS2_PLACEMENT_3D('',#1433,#1161,#1162);
#1069=AXIS2_PLACEMENT_3D('',#1439,#1166,#1167);
#1070=AXIS2_PLACEMENT_3D('',#1443,#1170,#1171);
#1071=AXIS2_PLACEMENT_3D('',#1447,#1174,#1175);
#1072=AXIS2_PLACEMENT_3D('',#1449,#1177,#1178);
#1073=AXIS2_PLACEMENT_3D('',#1450,#1179,#1180);
#1074=AXIS2_PLACEMENT_3D('',#1459,#1185,#1186);
#1075=AXIS2_PLACEMENT_3D('',#1465,#1190,#1191);
#1076=AXIS2_PLACEMENT_3D('',#1471,#1195,#1196);
#1077=AXIS2_PLACEMENT_3D('',#1497,#1210,#1211);
#1078=AXIS2_PLACEMENT_3D('',#1501,#1214,#1215);
#1079=AXIS2_PLACEMENT_3D('',#1505,#1218,#1219);
#1080=AXIS2_PLACEMENT_3D('',#1509,#1222,#1223);
#1081=AXIS2_PLACEMENT_3D('',#1529,#1234,#1235);
#1082=AXIS2_PLACEMENT_3D('',#1531,#1237,#1238);
#1083=AXIS2_PLACEMENT_3D('',#1534,#1241,#1242);
#1084=AXIS2_PLACEMENT_3D('',#1536,#1244,#1245);
#1085=AXIS2_PLACEMENT_3D('',#1537,#1246,#1247);
#1086=AXIS2_PLACEMENT_3D('',#1539,#1249,#1250);
#1087=AXIS2_PLACEMENT_3D('',#1542,#1253,#1254);
#1088=AXIS2_PLACEMENT_3D('',#1543,#1255,#1256);
#1089=AXIS2_PLACEMENT_3D('',#1545,#1258,#1259);
#1090=AXIS2_PLACEMENT_3D('',#1547,#1261,#1262);
#1091=AXIS2_PLACEMENT_3D('',#1548,#1263,#1264);
#1092=AXIS2_PLACEMENT_3D('',#1557,#1269,#1270);
#1093=AXIS2_PLACEMENT_3D('',#1563,#1274,#1275);
#1094=AXIS2_PLACEMENT_3D('',#1569,#1279,#1280);
#1095=AXIS2_PLACEMENT_3D('',#1571,#1281,#1282);
#1096=AXIS2_PLACEMENT_3D('',#1573,#1283,#1284);
#1097=AXIS2_PLACEMENT_3D('',#1575,#1286,#1287);
#1098=AXIS2_PLACEMENT_3D('',#1581,#1291,#1292);
#1099=AXIS2_PLACEMENT_3D('',#1584,#1295,#1296);
#1100=AXIS2_PLACEMENT_3D('',#1585,#1297,#1298);
#1101=AXIS2_PLACEMENT_3D('',#1586,#1299,#1300);
#1102=AXIS2_PLACEMENT_3D('',#1595,#1305,#1306);
#1103=AXIS2_PLACEMENT_3D('',#1597,#1307,#1308);
#1104=AXIS2_PLACEMENT_3D('',#1599,#1309,#1310);
#1105=AXIS2_PLACEMENT_3D('',#1601,#1312,#1313);
#1106=AXIS2_PLACEMENT_3D('',#1607,#1317,#1318);
#1107=AXIS2_PLACEMENT_3D('',#1613,#1322,#1323);
#1108=AXIS2_PLACEMENT_3D('',#1619,#1327,#1328);
#1109=AXIS2_PLACEMENT_3D('',#1622,#1331,#1332);
#1110=AXIS2_PLACEMENT_3D('',#1623,#1333,#1334);
#1111=AXIS2_PLACEMENT_3D('',#1624,#1335,#1336);
#1112=AXIS2_PLACEMENT_3D('',#1633,#1341,#1342);
#1113=AXIS2_PLACEMENT_3D('',#1639,#1346,#1347);
#1114=AXIS2_PLACEMENT_3D('',#1645,#1351,#1352);
#1115=AXIS2_PLACEMENT_3D('',#1647,#1353,#1354);
#1116=AXIS2_PLACEMENT_3D('',#1649,#1355,#1356);
#1117=AXIS2_PLACEMENT_3D('',#1651,#1358,#1359);
#1118=AXIS2_PLACEMENT_3D('',#1654,#1362,#1363);
#1119=AXIS2_PLACEMENT_3D('',#1655,#1364,#1365);
#1120=AXIS2_PLACEMENT_3D('',#1656,#1366,#1367);
#1121=AXIS2_PLACEMENT_3D('',#1665,#1372,#1373);
#1122=AXIS2_PLACEMENT_3D('',#1671,#1377,#1378);
#1123=AXIS2_PLACEMENT_3D('',#1673,#1379,#1380);
#1124=AXIS2_PLACEMENT_3D('',#1675,#1381,#1382);
#1125=AXIS2_PLACEMENT_3D('',#1677,#1384,#1385);
#1126=AXIS2_PLACEMENT_3D('',#1683,#1389,#1390);
#1127=AXIS2_PLACEMENT_3D('',#1686,#1393,#1394);
#1128=AXIS2_PLACEMENT_3D('',#1687,#1395,#1396);
#1129=DIRECTION('axis',(0.,0.,1.));
#1130=DIRECTION('refdir',(1.,0.,0.));
#1131=DIRECTION('center_axis',(0.,0.,1.));
#1132=DIRECTION('ref_axis',(-1.,-1.22464679914735E-16,0.));
#1133=DIRECTION('',(-1.22464679914735E-16,1.,0.));
#1134=DIRECTION('',(1.,1.22464679914735E-16,0.));
#1135=DIRECTION('',(1.22464679914735E-16,-1.,0.));
#1136=DIRECTION('',(-1.,-1.22464679914735E-16,0.));
#1137=DIRECTION('center_axis',(1.22464679914735E-16,-1.,0.));
#1138=DIRECTION('ref_axis',(0.,0.,1.));
#1139=DIRECTION('',(0.,0.,1.));
#1140=DIRECTION('',(-1.,-1.22464679914735E-16,0.));
#1141=DIRECTION('',(0.,0.,-1.));
#1142=DIRECTION('center_axis',(1.,1.22464679914735E-16,0.));
#1143=DIRECTION('ref_axis',(0.,0.,1.));
#1144=DIRECTION('',(0.,0.,-1.));
#1145=DIRECTION('',(-1.22464679914735E-16,1.,0.));
#1146=DIRECTION('center_axis',(-1.22464679914735E-16,1.,0.));
#1147=DIRECTION('ref_axis',(0.,0.,-1.));
#1148=DIRECTION('',(0.,0.,1.));
#1149=DIRECTION('',(1.,1.22464679914735E-16,0.));
#1150=DIRECTION('center_axis',(-1.,-1.22464679914735E-16,0.));
#1151=DIRECTION('ref_axis',(0.,0.,-1.));
#1152=DIRECTION('',(1.22464679914735E-16,-1.,0.));
#1153=DIRECTION('center_axis',(0.,0.,1.));
#1154=DIRECTION('ref_axis',(-1.,-1.22464679914735E-16,0.));
#1155=DIRECTION('center_axis',(0.,0.,1.));
#1156=DIRECTION('ref_axis',(-1.,-1.22464679914735E-16,0.));
#1157=DIRECTION('',(1.22464679914735E-16,-1.,0.));
#1158=DIRECTION('',(-1.,-1.22464679914735E-16,0.));
#1159=DIRECTION('',(-1.22464679914735E-16,1.,0.));
#1160=DIRECTION('',(1.,1.22464679914735E-16,0.));
#1161=DIRECTION('center_axis',(1.22464679914735E-16,-1.,0.));
#1162=DIRECTION('ref_axis',(1.,1.22464679914735E-16,0.));
#1163=DIRECTION('',(0.,0.,-1.));
#1164=DIRECTION('',(-1.,-1.22464679914735E-16,0.));
#1165=DIRECTION('',(0.,0.,1.));
#1166=DIRECTION('center_axis',(1.,1.22464679914735E-16,0.));
#1167=DIRECTION('ref_axis',(-1.22464679914735E-16,1.,0.));
#1168=DIRECTION('',(0.,0.,-1.));
#1169=DIRECTION('',(1.22464679914735E-16,-1.,0.));
#1170=DIRECTION('center_axis',(-1.,-1.22464679914735E-16,0.));
#1171=DIRECTION('ref_axis',(1.22464679914735E-16,-1.,0.));
#1172=DIRECTION('',(-1.22464679914735E-16,1.,0.));
#1173=DIRECTION('',(0.,0.,-1.));
#1174=DIRECTION('center_axis',(-1.22464679914735E-16,1.,0.));
#1175=DIRECTION('ref_axis',(-1.,-1.22464679914735E-16,0.));
#1176=DIRECTION('',(1.,1.22464679914735E-16,0.));
#1177=DIRECTION('center_axis',(0.,0.,1.));
#1178=DIRECTION('ref_axis',(-1.,-1.22464679914735E-16,0.));
#1179=DIRECTION('center_axis',(-1.,-1.22464679914735E-16,0.));
#1180=DIRECTION('ref_axis',(1.22464679914735E-16,-1.,0.));
#1181=DIRECTION('',(1.22464679914735E-16,-1.,0.));
#1182=DIRECTION('',(0.,0.,1.));
#1183=DIRECTION('',(-1.22464679914735E-16,1.,0.));
#1184=DIRECTION('',(0.,0.,1.));
#1185=DIRECTION('center_axis',(-1.11967706259625E-16,1.,0.));
#1186=DIRECTION('ref_axis',(-1.,-1.11967706259625E-16,0.));
#1187=DIRECTION('',(-1.,-1.11967706259625E-16,0.));
#1188=DIRECTION('',(0.,0.,-1.));
#1189=DIRECTION('',(1.,1.11967706259625E-16,0.));
#1190=DIRECTION('center_axis',(1.22464679914735E-16,-1.,0.));
#1191=DIRECTION('ref_axis',(1.,1.22464679914735E-16,0.));
#1192=DIRECTION('',(-1.,-1.22464679914735E-16,0.));
#1193=DIRECTION('',(0.,0.,-1.));
#1194=DIRECTION('',(1.,1.22464679914735E-16,0.));
#1195=DIRECTION('center_axis',(0.,0.,-1.));
#1196=DIRECTION('ref_axis',(1.,1.22464679914735E-16,0.));
#1197=DIRECTION('',(-1.22464679914735E-16,1.,0.));
#1198=DIRECTION('',(-1.,-1.11967706259625E-16,0.));
#1199=DIRECTION('',(1.22464679914735E-16,-1.,0.));
#1200=DIRECTION('',(1.,1.22464679914735E-16,0.));
#1201=DIRECTION('',(-1.22464679914735E-16,1.,0.));
#1202=DIRECTION('',(-1.,-1.11967706259625E-16,0.));
#1203=DIRECTION('',(1.22464679914735E-16,-1.,0.));
#1204=DIRECTION('',(1.,1.22464679914735E-16,0.));
#1205=DIRECTION('',(-1.22464679914735E-16,1.,0.));
#1206=DIRECTION('',(-1.,-1.11967706259625E-16,0.));
#1207=DIRECTION('',(1.22464679914735E-16,-1.,0.));
#1208=DIRECTION('',(-1.,-1.22464679914735E-16,0.));
#1209=DIRECTION('',(-1.22464679914735E-16,1.,0.));
#1210=DIRECTION('center_axis',(1.,1.22464679914735E-16,0.));
#1211=DIRECTION('ref_axis',(-1.22464679914735E-16,1.,0.));
#1212=DIRECTION('',(1.22464679914735E-16,-1.,0.));
#1213=DIRECTION('',(0.,0.,1.));
#1214=DIRECTION('center_axis',(-1.11967706259625E-16,1.,0.));
#1215=DIRECTION('ref_axis',(-1.,-1.11967706259625E-16,0.));
#1216=DIRECTION('',(1.,1.11967706259625E-16,0.));
#1217=DIRECTION('',(0.,0.,1.));
#1218=DIRECTION('center_axis',(-1.,-1.22464679914735E-16,0.));
#1219=DIRECTION('ref_axis',(1.22464679914735E-16,-1.,0.));
#1220=DIRECTION('',(0.,0.,1.));
#1221=DIRECTION('',(-1.22464679914735E-16,1.,0.));
#1222=DIRECTION('center_axis',(0.,0.,1.));
#1223=DIRECTION('ref_axis',(-1.,-1.22464679914735E-16,0.));
#1224=DIRECTION('',(1.22464679914735E-16,-1.,0.));
#1225=DIRECTION('',(1.,1.22464679914735E-16,0.));
#1226=DIRECTION('',(-1.22464679914735E-16,1.,0.));
#1227=DIRECTION('',(1.,1.11967706259625E-16,0.));
#1228=DIRECTION('',(1.22464679914735E-16,-1.,0.));
#1229=DIRECTION('',(-1.,-1.22464679914735E-16,0.));
#1230=DIRECTION('',(-1.22464679914735E-16,1.,0.));
#1231=DIRECTION('',(1.,1.11967706259625E-16,0.));
#1232=DIRECTION('',(1.22464679914735E-16,-1.,0.));
#1233=DIRECTION('',(-1.,-1.22464679914735E-16,0.));
#1234=DIRECTION('center_axis',(1.22464679914735E-16,-1.,0.));
#1235=DIRECTION('ref_axis',(1.,1.22464679914735E-16,0.));
#1236=DIRECTION('',(0.,0.,-1.));
#1237=DIRECTION('center_axis',(-1.11967706259625E-16,1.,0.));
#1238=DIRECTION('ref_axis',(-1.,-1.11967706259625E-16,0.));
#1239=DIRECTION('',(0.,0.,1.));
#1240=DIRECTION('',(0.,0.,1.));
#1241=DIRECTION('center_axis',(-1.,-1.22464679914735E-16,0.));
#1242=DIRECTION('ref_axis',(1.22464679914735E-16,-1.,0.));
#1243=DIRECTION('',(0.,0.,1.));
#1244=DIRECTION('center_axis',(1.,1.22464679914735E-16,0.));
#1245=DIRECTION('ref_axis',(-1.22464679914735E-16,1.,0.));
#1246=DIRECTION('center_axis',(1.22464679914735E-16,-1.,0.));
#1247=DIRECTION('ref_axis',(1.,1.22464679914735E-16,0.));
#1248=DIRECTION('',(0.,0.,-1.));
#1249=DIRECTION('center_axis',(-1.11967706259625E-16,1.,0.));
#1250=DIRECTION('ref_axis',(-1.,-1.11967706259625E-16,0.));
#1251=DIRECTION('',(0.,0.,1.));
#1252=DIRECTION('',(0.,0.,1.));
#1253=DIRECTION('center_axis',(1.,1.22464679914735E-16,0.));
#1254=DIRECTION('ref_axis',(-1.22464679914735E-16,1.,0.));
#1255=DIRECTION('center_axis',(-1.,-1.22464679914735E-16,0.));
#1256=DIRECTION('ref_axis',(1.22464679914735E-16,-1.,0.));
#1257=DIRECTION('',(0.,0.,1.));
#1258=DIRECTION('center_axis',(-1.22464679914735E-16,1.,0.));
#1259=DIRECTION('ref_axis',(-1.,-1.22464679914735E-16,0.));
#1260=DIRECTION('',(0.,0.,-1.));
#1261=DIRECTION('center_axis',(1.,1.22464679914735E-16,0.));
#1262=DIRECTION('ref_axis',(-1.22464679914735E-16,1.,0.));
#1263=DIRECTION('center_axis',(-1.11967706259625E-16,1.,0.));
#1264=DIRECTION('ref_axis',(-1.,-1.11967706259625E-16,0.));
#1265=DIRECTION('',(-1.,-1.11967706259625E-16,0.));
#1266=DIRECTION('',(0.,0.,1.));
#1267=DIRECTION('',(-1.,-1.11967706259625E-16,0.));
#1268=DIRECTION('',(0.,0.,1.));
#1269=DIRECTION('center_axis',(1.,1.22464679914735E-16,0.));
#1270=DIRECTION('ref_axis',(-1.22464679914735E-16,1.,0.));
#1271=DIRECTION('',(-1.22464679914735E-16,1.,0.));
#1272=DIRECTION('',(-1.22464679914735E-16,1.,0.));
#1273=DIRECTION('',(0.,0.,1.));
#1274=DIRECTION('center_axis',(1.89483997501671E-16,-1.,0.));
#1275=DIRECTION('ref_axis',(1.,1.89483997501671E-16,0.));
#1276=DIRECTION('',(1.,1.89483997501671E-16,0.));
#1277=DIRECTION('',(1.,1.89483997501671E-16,0.));
#1278=DIRECTION('',(0.,0.,1.));
#1279=DIRECTION('center_axis',(0.,0.,1.));
#1280=DIRECTION('ref_axis',(-1.,-1.22464679914735E-16,0.));
#1281=DIRECTION('center_axis',(0.,0.,-1.));
#1282=DIRECTION('ref_axis',(-1.,-1.22464679914735E-16,0.));
#1283=DIRECTION('center_axis',(0.,0.,-1.));
#1284=DIRECTION('ref_axis',(-1.,-1.22464679914735E-16,0.));
#1285=DIRECTION('',(0.,0.,1.));
#1286=DIRECTION('center_axis',(1.89483997501671E-16,-1.,0.));
#1287=DIRECTION('ref_axis',(1.,1.89483997501671E-16,0.));
#1288=DIRECTION('',(1.,1.89483997501671E-16,0.));
#1289=DIRECTION('',(1.,1.89483997501671E-16,0.));
#1290=DIRECTION('',(0.,0.,1.));
#1291=DIRECTION('center_axis',(-1.,-1.22464679914735E-16,0.));
#1292=DIRECTION('ref_axis',(1.22464679914735E-16,-1.,0.));
#1293=DIRECTION('',(-1.22464679914735E-16,1.,0.));
#1294=DIRECTION('',(1.22464679914735E-16,-1.,0.));
#1295=DIRECTION('center_axis',(0.,0.,-1.));
#1296=DIRECTION('ref_axis',(-1.,-1.22464679914735E-16,0.));
#1297=DIRECTION('center_axis',(0.,0.,-1.));
#1298=DIRECTION('ref_axis',(-1.,-1.22464679914735E-16,0.));
#1299=DIRECTION('center_axis',(1.22464679914735E-16,-1.,0.));
#1300=DIRECTION('ref_axis',(1.,1.22464679914735E-16,0.));
#1301=DIRECTION('',(1.,1.22464679914735E-16,0.));
#1302=DIRECTION('',(0.,0.,1.));
#1303=DIRECTION('',(1.,1.22464679914735E-16,0.));
#1304=DIRECTION('',(0.,0.,1.));
#1305=DIRECTION('center_axis',(0.,0.,1.));
#1306=DIRECTION('ref_axis',(-1.,-1.22464679914735E-16,0.));
#1307=DIRECTION('center_axis',(0.,0.,-1.));
#1308=DIRECTION('ref_axis',(-1.,-1.22464679914735E-16,0.));
#1309=DIRECTION('center_axis',(0.,0.,-1.));
#1310=DIRECTION('ref_axis',(-1.,-1.22464679914735E-16,0.));
#1311=DIRECTION('',(0.,0.,1.));
#1312=DIRECTION('center_axis',(1.22464679914735E-16,-1.,0.));
#1313=DIRECTION('ref_axis',(1.,1.22464679914735E-16,0.));
#1314=DIRECTION('',(1.,1.22464679914735E-16,0.));
#1315=DIRECTION('',(1.,1.22464679914735E-16,0.));
#1316=DIRECTION('',(0.,0.,1.));
#1317=DIRECTION('center_axis',(-1.,-1.22464679914735E-16,0.));
#1318=DIRECTION('ref_axis',(1.22464679914735E-16,-1.,0.));
#1319=DIRECTION('',(1.22464679914735E-16,-1.,0.));
#1320=DIRECTION('',(1.22464679914735E-16,-1.,0.));
#1321=DIRECTION('',(0.,0.,1.));
#1322=DIRECTION('center_axis',(-1.11967706259625E-16,1.,0.));
#1323=DIRECTION('ref_axis',(-1.,-1.11967706259625E-16,0.));
#1324=DIRECTION('',(-1.,-1.11967706259625E-16,0.));
#1325=DIRECTION('',(-1.,-1.11967706259625E-16,0.));
#1326=DIRECTION('',(0.,0.,1.));
#1327=DIRECTION('center_axis',(1.,1.22464679914735E-16,0.));
#1328=DIRECTION('ref_axis',(-1.22464679914735E-16,1.,0.));
#1329=DIRECTION('',(1.22464679914735E-16,-1.,0.));
#1330=DIRECTION('',(-1.22464679914735E-16,1.,0.));
#1331=DIRECTION('center_axis',(0.,0.,-1.));
#1332=DIRECTION('ref_axis',(-1.,-1.22464679914735E-16,0.));
#1333=DIRECTION('center_axis',(0.,0.,-1.));
#1334=DIRECTION('ref_axis',(-1.,-1.22464679914735E-16,0.));
#1335=DIRECTION('center_axis',(-1.11967706259625E-16,1.,0.));
#1336=DIRECTION('ref_axis',(-1.,-1.11967706259625E-16,0.));
#1337=DIRECTION('',(-1.,-1.11967706259625E-16,0.));
#1338=DIRECTION('',(0.,0.,1.));
#1339=DIRECTION('',(-1.,-1.11967706259625E-16,0.));
#1340=DIRECTION('',(0.,0.,1.));
#1341=DIRECTION('center_axis',(1.,1.22464679914735E-16,0.));
#1342=DIRECTION('ref_axis',(-1.22464679914735E-16,1.,0.));
#1343=DIRECTION('',(-1.22464679914735E-16,1.,0.));
#1344=DIRECTION('',(-1.22464679914735E-16,1.,0.));
#1345=DIRECTION('',(0.,0.,1.));
#1346=DIRECTION('center_axis',(1.89483997501671E-16,-1.,0.));
#1347=DIRECTION('ref_axis',(1.,1.89483997501671E-16,0.));
#1348=DIRECTION('',(1.,1.89483997501671E-16,0.));
#1349=DIRECTION('',(1.,1.89483997501671E-16,0.));
#1350=DIRECTION('',(0.,0.,1.));
#1351=DIRECTION('center_axis',(0.,0.,1.));
#1352=DIRECTION('ref_axis',(-1.,-1.22464679914735E-16,0.));
#1353=DIRECTION('center_axis',(0.,0.,-1.));
#1354=DIRECTION('ref_axis',(-1.,-1.22464679914735E-16,0.));
#1355=DIRECTION('center_axis',(0.,0.,-1.));
#1356=DIRECTION('ref_axis',(-1.,-1.22464679914735E-16,0.));
#1357=DIRECTION('',(0.,0.,1.));
#1358=DIRECTION('center_axis',(-1.,-1.22464679914735E-16,0.));
#1359=DIRECTION('ref_axis',(1.22464679914735E-16,-1.,0.));
#1360=DIRECTION('',(1.22464679914735E-16,-1.,0.));
#1361=DIRECTION('',(1.22464679914735E-16,-1.,0.));
#1362=DIRECTION('center_axis',(0.,0.,-1.));
#1363=DIRECTION('ref_axis',(-1.,-1.22464679914735E-16,0.));
#1364=DIRECTION('center_axis',(0.,0.,-1.));
#1365=DIRECTION('ref_axis',(-1.,-1.22464679914735E-16,0.));
#1366=DIRECTION('center_axis',(-1.11967706259625E-16,1.,0.));
#1367=DIRECTION('ref_axis',(-1.,-1.11967706259625E-16,0.));
#1368=DIRECTION('',(-1.,-1.11967706259625E-16,0.));
#1369=DIRECTION('',(0.,0.,1.));
#1370=DIRECTION('',(-1.,-1.11967706259625E-16,0.));
#1371=DIRECTION('',(0.,0.,1.));
#1372=DIRECTION('center_axis',(1.,1.22464679914735E-16,0.));
#1373=DIRECTION('ref_axis',(-1.22464679914735E-16,1.,0.));
#1374=DIRECTION('',(-1.22464679914735E-16,1.,0.));
#1375=DIRECTION('',(-1.22464679914735E-16,1.,0.));
#1376=DIRECTION('',(0.,0.,1.));
#1377=DIRECTION('center_axis',(0.,0.,1.));
#1378=DIRECTION('ref_axis',(-1.,-1.22464679914735E-16,0.));
#1379=DIRECTION('center_axis',(0.,0.,-1.));
#1380=DIRECTION('ref_axis',(-1.,-1.22464679914735E-16,0.));
#1381=DIRECTION('center_axis',(0.,0.,-1.));
#1382=DIRECTION('ref_axis',(-1.,-1.22464679914735E-16,0.));
#1383=DIRECTION('',(0.,0.,1.));
#1384=DIRECTION('center_axis',(-2.47609661626983E-16,-1.,0.));
#1385=DIRECTION('ref_axis',(1.,-2.47609661626983E-16,0.));
#1386=DIRECTION('',(1.,-2.47609661626983E-16,0.));
#1387=DIRECTION('',(1.,-2.47609661626983E-16,0.));
#1388=DIRECTION('',(0.,0.,1.));
#1389=DIRECTION('center_axis',(-1.,-1.22464679914735E-16,0.));
#1390=DIRECTION('ref_axis',(1.22464679914735E-16,-1.,0.));
#1391=DIRECTION('',(1.22464679914735E-16,-1.,0.));
#1392=DIRECTION('',(1.22464679914735E-16,-1.,0.));
#1393=DIRECTION('center_axis',(0.,0.,-1.));
#1394=DIRECTION('ref_axis',(-1.,-1.22464679914735E-16,0.));
#1395=DIRECTION('center_axis',(0.,0.,-1.));
#1396=DIRECTION('ref_axis',(-1.,-1.22464679914735E-16,0.));
#1397=CARTESIAN_POINT('',(0.,0.,0.));
#1398=CARTESIAN_POINT('Origin',(-1.5,-1.83697019872103E-16,0.13));
#1399=CARTESIAN_POINT('',(1.5,-0.2,0.13));
#1400=CARTESIAN_POINT('',(1.5,0.2,0.13));
#1401=CARTESIAN_POINT('',(1.5,1.83697019872103E-16,0.13));
#1402=CARTESIAN_POINT('',(-1.5,-0.2,0.13));
#1403=CARTESIAN_POINT('',(-0.75,-0.2,0.13));
#1404=CARTESIAN_POINT('',(-1.5,0.2,0.13));
#1405=CARTESIAN_POINT('',(-1.5,-1.83697019872103E-16,0.13));
#1406=CARTESIAN_POINT('',(-0.75,0.2,0.13));
#1407=CARTESIAN_POINT('Origin',(2.44929359829471E-17,-0.2,0.));
#1408=CARTESIAN_POINT('',(1.5,-0.2,0.5));
#1409=CARTESIAN_POINT('',(1.5,-0.2,0.5));
#1410=CARTESIAN_POINT('',(-1.5,-0.2,0.5));
#1411=CARTESIAN_POINT('',(-1.5,-0.2,0.5));
#1412=CARTESIAN_POINT('',(-1.5,-0.2,-0.5));
#1413=CARTESIAN_POINT('Origin',(1.5,1.83697019872103E-16,-0.5));
#1414=CARTESIAN_POINT('',(1.5,0.2,0.5));
#1415=CARTESIAN_POINT('',(1.5,0.2,0.5));
#1416=CARTESIAN_POINT('',(1.5,1.83697019872103E-16,0.5));
#1417=CARTESIAN_POINT('Origin',(-2.44929359829471E-17,0.2,0.));
#1418=CARTESIAN_POINT('',(-1.5,0.2,0.5));
#1419=CARTESIAN_POINT('',(-1.5,0.2,-0.5));
#1420=CARTESIAN_POINT('',(-1.5,0.2,0.5));
#1421=CARTESIAN_POINT('Origin',(-1.5,-1.83697019872103E-16,0.5));
#1422=CARTESIAN_POINT('',(-1.5,-1.83697019872103E-16,0.5));
#1423=CARTESIAN_POINT('Origin',(1.5,1.83697019872103E-16,0.5));
#1424=CARTESIAN_POINT('Origin',(-1.5,-1.83697019872103E-16,0.0300000000000001));
#1425=CARTESIAN_POINT('',(1.501,-0.201,0.0300000000000001));
#1426=CARTESIAN_POINT('',(1.501,0.201,0.0300000000000001));
#1427=CARTESIAN_POINT('',(1.501,-0.0999999999999998,0.0300000000000001));
#1428=CARTESIAN_POINT('',(-1.501,-0.201,0.0300000000000001));
#1429=CARTESIAN_POINT('',(-1.5,-0.201,0.0300000000000001));
#1430=CARTESIAN_POINT('',(-1.501,0.201,0.0300000000000001));
#1431=CARTESIAN_POINT('',(-1.501,0.0999999999999998,0.0300000000000001));
#1432=CARTESIAN_POINT('',(-2.46154006628618E-17,0.201,0.0300000000000001));
#1433=CARTESIAN_POINT('Origin',(-1.5,-0.201,-0.5));
#1434=CARTESIAN_POINT('',(1.501,-0.201,0.13));
#1435=CARTESIAN_POINT('',(1.501,-0.201,-0.5));
#1436=CARTESIAN_POINT('',(-1.501,-0.201,0.13));
#1437=CARTESIAN_POINT('',(-1.5,-0.201,0.13));
#1438=CARTESIAN_POINT('',(-1.501,-0.201,-0.5));
#1439=CARTESIAN_POINT('Origin',(1.501,-0.2,-0.5));
#1440=CARTESIAN_POINT('',(1.501,0.201,0.13));
#1441=CARTESIAN_POINT('',(1.501,0.201,-0.5));
#1442=CARTESIAN_POINT('',(1.501,-0.0999999999999998,0.13));
#1443=CARTESIAN_POINT('Origin',(-1.501,0.2,-0.5));
#1444=CARTESIAN_POINT('',(-1.501,0.201,0.13));
#1445=CARTESIAN_POINT('',(-1.501,0.0999999999999998,0.13));
#1446=CARTESIAN_POINT('',(-1.501,0.201,-0.5));
#1447=CARTESIAN_POINT('Origin',(1.5,0.201,-0.5));
#1448=CARTESIAN_POINT('',(-2.46154006628618E-17,0.201,0.13));
#1449=CARTESIAN_POINT('Origin',(-1.5,-1.83697019872103E-16,0.13));
#1450=CARTESIAN_POINT('Origin',(1.125,0.183167006303273,-0.5));
#1451=CARTESIAN_POINT('',(1.125,0.183167006303273,-0.49));
#1452=CARTESIAN_POINT('',(1.125,-0.199,-0.49));
#1453=CARTESIAN_POINT('',(1.125,0.0915835031516364,-0.49));
#1454=CARTESIAN_POINT('',(1.125,0.183167006303273,0.0300000000000001));
#1455=CARTESIAN_POINT('',(1.125,0.183167006303273,-0.5));
#1456=CARTESIAN_POINT('',(1.125,-0.199,0.0300000000000001));
#1457=CARTESIAN_POINT('',(1.125,0.0915835031516364,0.0300000000000001));
#1458=CARTESIAN_POINT('',(1.125,-0.199,-0.5));
#1459=CARTESIAN_POINT('Origin',(1.5,0.183167006303273,-0.5));
#1460=CARTESIAN_POINT('',(1.499,0.183167006303273,-0.49));
#1461=CARTESIAN_POINT('',(-2.14701391780452E-17,0.183167006303273,-0.49));
#1462=CARTESIAN_POINT('',(1.499,0.183167006303273,0.0300000000000001));
#1463=CARTESIAN_POINT('',(1.499,0.183167006303273,-0.5));
#1464=CARTESIAN_POINT('',(-2.14701391780452E-17,0.183167006303273,0.0300000000000001));
#1465=CARTESIAN_POINT('Origin',(-1.5,-0.199,-0.5));
#1466=CARTESIAN_POINT('',(0.875,-0.199,0.0300000000000001));
#1467=CARTESIAN_POINT('',(-1.5,-0.199,0.0300000000000001));
#1468=CARTESIAN_POINT('',(0.875,-0.199,-0.49));
#1469=CARTESIAN_POINT('',(0.875,-0.199,-0.5));
#1470=CARTESIAN_POINT('',(-1.5,-0.199,-0.49));
#1471=CARTESIAN_POINT('Origin',(-1.5,-1.83697019872103E-16,-0.49));
#1472=CARTESIAN_POINT('',(0.875,0.183167006303273,-0.49));
#1473=CARTESIAN_POINT('',(0.875,-0.0999999999999998,-0.49));
#1474=CARTESIAN_POINT('',(0.125,0.183167006303273,-0.49));
#1475=CARTESIAN_POINT('',(-0.3125,0.183167006303273,-0.49));
#1476=CARTESIAN_POINT('',(0.125,-0.199,-0.49));
#1477=CARTESIAN_POINT('',(0.125,0.0915835031516363,-0.49));
#1478=CARTESIAN_POINT('',(-0.125,-0.199,-0.49));
#1479=CARTESIAN_POINT('',(-1.5,-0.199,-0.49));
#1480=CARTESIAN_POINT('',(-0.125,0.183167006303273,-0.49));
#1481=CARTESIAN_POINT('',(-0.125,-0.1,-0.49));
#1482=CARTESIAN_POINT('',(-0.875,0.183167006303273,-0.49));
#1483=CARTESIAN_POINT('',(-0.8125,0.183167006303273,-0.49));
#1484=CARTESIAN_POINT('',(-0.875,-0.199,-0.49));
#1485=CARTESIAN_POINT('',(-0.875,0.0915835031516362,-0.49));
#1486=CARTESIAN_POINT('',(-1.125,-0.199,-0.49));
#1487=CARTESIAN_POINT('',(-1.5,-0.199,-0.49));
#1488=CARTESIAN_POINT('',(-1.125,0.183167006303273,-0.49));
#1489=CARTESIAN_POINT('',(-1.125,-0.1,-0.49));
#1490=CARTESIAN_POINT('',(-1.499,0.183167006303272,-0.49));
#1491=CARTESIAN_POINT('',(-1.3125,0.183167006303272,-0.49));
#1492=CARTESIAN_POINT('',(-1.499,0.199,-0.49));
#1493=CARTESIAN_POINT('',(-1.499,0.0999999999999998,-0.49));
#1494=CARTESIAN_POINT('',(1.499,0.199,-0.49));
#1495=CARTESIAN_POINT('',(-2.43704713030323E-17,0.199,-0.49));
#1496=CARTESIAN_POINT('',(1.499,-0.0999999999999998,-0.49));
#1497=CARTESIAN_POINT('Origin',(0.875,-0.2,-0.5));
#1498=CARTESIAN_POINT('',(0.875,0.183167006303273,0.0300000000000001));
#1499=CARTESIAN_POINT('',(0.875,-0.0999999999999998,0.0300000000000001));
#1500=CARTESIAN_POINT('',(0.875,0.183167006303273,-0.5));
#1501=CARTESIAN_POINT('Origin',(0.875,0.183167006303273,-0.5));
#1502=CARTESIAN_POINT('',(0.125,0.183167006303273,0.0300000000000001));
#1503=CARTESIAN_POINT('',(-0.3125,0.183167006303273,0.0300000000000001));
#1504=CARTESIAN_POINT('',(0.125,0.183167006303273,-0.5));
#1505=CARTESIAN_POINT('Origin',(0.125,0.183167006303273,-0.5));
#1506=CARTESIAN_POINT('',(0.125,-0.199,0.0300000000000001));
#1507=CARTESIAN_POINT('',(0.125,-0.199,-0.5));
#1508=CARTESIAN_POINT('',(0.125,0.0915835031516363,0.0300000000000001));
#1509=CARTESIAN_POINT('Origin',(-1.5,-1.83697019872103E-16,0.0300000000000001));
#1510=CARTESIAN_POINT('',(1.499,0.199,0.0300000000000001));
#1511=CARTESIAN_POINT('',(1.499,-0.0999999999999998,0.0300000000000001));
#1512=CARTESIAN_POINT('',(-1.499,0.199,0.0300000000000001));
#1513=CARTESIAN_POINT('',(-2.43704713030323E-17,0.199,0.0300000000000001));
#1514=CARTESIAN_POINT('',(-1.499,0.183167006303272,0.0300000000000001));
#1515=CARTESIAN_POINT('',(-1.499,0.0999999999999998,0.0300000000000001));
#1516=CARTESIAN_POINT('',(-1.125,0.183167006303273,0.0300000000000001));
#1517=CARTESIAN_POINT('',(-1.3125,0.183167006303272,0.0300000000000001));
#1518=CARTESIAN_POINT('',(-1.125,-0.199,0.0300000000000001));
#1519=CARTESIAN_POINT('',(-1.125,-0.1,0.0300000000000001));
#1520=CARTESIAN_POINT('',(-0.875,-0.199,0.0300000000000001));
#1521=CARTESIAN_POINT('',(-1.5,-0.199,0.0300000000000001));
#1522=CARTESIAN_POINT('',(-0.875,0.183167006303273,0.0300000000000001));
#1523=CARTESIAN_POINT('',(-0.875,0.0915835031516362,0.0300000000000001));
#1524=CARTESIAN_POINT('',(-0.125,0.183167006303273,0.0300000000000001));
#1525=CARTESIAN_POINT('',(-0.8125,0.183167006303273,0.0300000000000001));
#1526=CARTESIAN_POINT('',(-0.125,-0.199,0.0300000000000001));
#1527=CARTESIAN_POINT('',(-0.125,-0.1,0.0300000000000001));
#1528=CARTESIAN_POINT('',(-1.5,-0.199,0.0300000000000001));
#1529=CARTESIAN_POINT('Origin',(-1.5,-0.199,-0.5));
#1530=CARTESIAN_POINT('',(-0.125,-0.199,-0.5));
#1531=CARTESIAN_POINT('Origin',(-0.125,0.183167006303273,-0.5));
#1532=CARTESIAN_POINT('',(-0.125,0.183167006303273,-0.5));
#1533=CARTESIAN_POINT('',(-0.875,0.183167006303273,-0.5));
#1534=CARTESIAN_POINT('Origin',(-0.875,0.183167006303272,-0.5));
#1535=CARTESIAN_POINT('',(-0.875,-0.199,-0.5));
#1536=CARTESIAN_POINT('Origin',(-0.125,-0.2,-0.5));
#1537=CARTESIAN_POINT('Origin',(-1.5,-0.199,-0.5));
#1538=CARTESIAN_POINT('',(-1.125,-0.199,-0.5));
#1539=CARTESIAN_POINT('Origin',(-1.125,0.183167006303273,-0.5));
#1540=CARTESIAN_POINT('',(-1.125,0.183167006303273,-0.5));
#1541=CARTESIAN_POINT('',(-1.499,0.183167006303273,-0.5));
#1542=CARTESIAN_POINT('Origin',(-1.125,-0.2,-0.5));
#1543=CARTESIAN_POINT('Origin',(-1.499,0.2,-0.5));
#1544=CARTESIAN_POINT('',(-1.499,0.199,-0.5));
#1545=CARTESIAN_POINT('Origin',(1.5,0.199,-0.5));
#1546=CARTESIAN_POINT('',(1.499,0.199,-0.5));
#1547=CARTESIAN_POINT('Origin',(1.499,-0.2,-0.5));
#1548=CARTESIAN_POINT('Origin',(-0.125,0.183167006303273,-0.5));
#1549=CARTESIAN_POINT('',(-0.125,0.183167006303273,-0.5));
#1550=CARTESIAN_POINT('',(-0.875,0.183167006303273,-0.5));
#1551=CARTESIAN_POINT('',(1.5,0.183167006303273,-0.5));
#1552=CARTESIAN_POINT('',(-0.875,0.183167006303273,0.0300000000000001));
#1553=CARTESIAN_POINT('',(-0.875,0.183167006303273,-0.5));
#1554=CARTESIAN_POINT('',(-0.125,0.183167006303273,0.0300000000000001));
#1555=CARTESIAN_POINT('',(1.5,0.183167006303273,0.0300000000000001));
#1556=CARTESIAN_POINT('',(-0.125,0.183167006303273,-0.5));
#1557=CARTESIAN_POINT('Origin',(-0.125,-0.2,-0.5));
#1558=CARTESIAN_POINT('',(-0.125,-0.2,-0.5));
#1559=CARTESIAN_POINT('',(-0.125,-0.471378508766301,-0.5));
#1560=CARTESIAN_POINT('',(-0.125,-0.2,0.0300000000000001));
#1561=CARTESIAN_POINT('',(-0.125,-0.471378508766301,0.0300000000000001));
#1562=CARTESIAN_POINT('',(-0.125,-0.2,-0.5));
#1563=CARTESIAN_POINT('Origin',(-0.225,-0.2,-0.5));
#1564=CARTESIAN_POINT('',(-0.225,-0.2,-0.5));
#1565=CARTESIAN_POINT('',(-1.5,-0.2,-0.5));
#1566=CARTESIAN_POINT('',(-0.225,-0.2,0.0300000000000001));
#1567=CARTESIAN_POINT('',(-1.5,-0.2,0.0300000000000001));
#1568=CARTESIAN_POINT('',(-0.225,-0.2,-0.5));
#1569=CARTESIAN_POINT('Origin',(-0.5,-0.2,-0.5));
#1570=CARTESIAN_POINT('',(-0.775,-0.2,-0.5));
#1571=CARTESIAN_POINT('Origin',(-0.5,-0.2,-0.5));
#1572=CARTESIAN_POINT('',(-0.775,-0.2,0.0300000000000001));
#1573=CARTESIAN_POINT('Origin',(-0.5,-0.2,0.0300000000000001));
#1574=CARTESIAN_POINT('',(-0.775,-0.2,-0.5));
#1575=CARTESIAN_POINT('Origin',(-0.875,-0.2,-0.5));
#1576=CARTESIAN_POINT('',(-0.875,-0.2,-0.5));
#1577=CARTESIAN_POINT('',(-1.5,-0.2,-0.5));
#1578=CARTESIAN_POINT('',(-0.875,-0.2,0.0300000000000001));
#1579=CARTESIAN_POINT('',(-1.5,-0.2,0.0300000000000001));
#1580=CARTESIAN_POINT('',(-0.875,-0.2,-0.5));
#1581=CARTESIAN_POINT('Origin',(-0.875,0.183167006303272,-0.5));
#1582=CARTESIAN_POINT('',(-0.875,-0.471378508766301,-0.5));
#1583=CARTESIAN_POINT('',(-0.875,-0.471378508766301,0.0300000000000001));
#1584=CARTESIAN_POINT('Origin',(-0.5,-0.00841649684836374,-0.5));
#1585=CARTESIAN_POINT('Origin',(-0.5,-0.00841649684836374,0.0300000000000001));
#1586=CARTESIAN_POINT('Origin',(0.775,-0.2,-0.5));
#1587=CARTESIAN_POINT('',(0.775,-0.2,-0.5));
#1588=CARTESIAN_POINT('',(0.875,-0.2,-0.5));
#1589=CARTESIAN_POINT('',(0.125,-0.2,-0.5));
#1590=CARTESIAN_POINT('',(0.875,-0.2,0.0300000000000001));
#1591=CARTESIAN_POINT('',(0.875,-0.2,-0.5));
#1592=CARTESIAN_POINT('',(0.775,-0.2,0.0300000000000001));
#1593=CARTESIAN_POINT('',(0.125,-0.2,0.0300000000000001));
#1594=CARTESIAN_POINT('',(0.775,-0.2,-0.5));
#1595=CARTESIAN_POINT('Origin',(0.5,-0.2,-0.5));
#1596=CARTESIAN_POINT('',(0.225,-0.2,-0.5));
#1597=CARTESIAN_POINT('Origin',(0.5,-0.2,-0.5));
#1598=CARTESIAN_POINT('',(0.225,-0.2,0.0300000000000001));
#1599=CARTESIAN_POINT('Origin',(0.5,-0.2,0.0300000000000001));
#1600=CARTESIAN_POINT('',(0.225,-0.2,-0.5));
#1601=CARTESIAN_POINT('Origin',(0.125,-0.2,-0.5));
#1602=CARTESIAN_POINT('',(0.125,-0.2,-0.5));
#1603=CARTESIAN_POINT('',(0.125,-0.2,-0.5));
#1604=CARTESIAN_POINT('',(0.125,-0.2,0.0300000000000001));
#1605=CARTESIAN_POINT('',(0.125,-0.2,0.0300000000000001));
#1606=CARTESIAN_POINT('',(0.125,-0.2,-0.5));
#1607=CARTESIAN_POINT('Origin',(0.125,0.183167006303273,-0.5));
#1608=CARTESIAN_POINT('',(0.125,0.183167006303273,-0.5));
#1609=CARTESIAN_POINT('',(0.125,0.471378508766301,-0.5));
#1610=CARTESIAN_POINT('',(0.125,0.183167006303273,0.0300000000000001));
#1611=CARTESIAN_POINT('',(0.125,0.471378508766301,0.0300000000000001));
#1612=CARTESIAN_POINT('',(0.125,0.183167006303273,-0.5));
#1613=CARTESIAN_POINT('Origin',(0.875,0.183167006303273,-0.5));
#1614=CARTESIAN_POINT('',(0.875,0.183167006303273,-0.5));
#1615=CARTESIAN_POINT('',(1.5,0.183167006303273,-0.5));
#1616=CARTESIAN_POINT('',(0.875,0.183167006303273,0.0300000000000001));
#1617=CARTESIAN_POINT('',(1.5,0.183167006303273,0.0300000000000001));
#1618=CARTESIAN_POINT('',(0.875,0.183167006303273,-0.5));
#1619=CARTESIAN_POINT('Origin',(0.875,-0.2,-0.5));
#1620=CARTESIAN_POINT('',(0.875,0.471378508766301,-0.5));
#1621=CARTESIAN_POINT('',(0.875,0.471378508766301,0.0300000000000001));
#1622=CARTESIAN_POINT('Origin',(0.5,-0.00841649684836365,-0.5));
#1623=CARTESIAN_POINT('Origin',(0.5,-0.00841649684836365,0.0300000000000001));
#1624=CARTESIAN_POINT('Origin',(-1.125,0.183167006303273,-0.5));
#1625=CARTESIAN_POINT('',(-1.125,0.183167006303273,-0.5));
#1626=CARTESIAN_POINT('',(-1.5,0.183167006303272,-0.5));
#1627=CARTESIAN_POINT('',(1.5,0.183167006303273,-0.5));
#1628=CARTESIAN_POINT('',(-1.5,0.183167006303272,0.0300000000000001));
#1629=CARTESIAN_POINT('',(-1.5,0.183167006303272,-0.5));
#1630=CARTESIAN_POINT('',(-1.125,0.183167006303273,0.0300000000000001));
#1631=CARTESIAN_POINT('',(1.5,0.183167006303273,0.0300000000000001));
#1632=CARTESIAN_POINT('',(-1.125,0.183167006303273,-0.5));
#1633=CARTESIAN_POINT('Origin',(-1.125,-0.2,-0.5));
#1634=CARTESIAN_POINT('',(-1.125,-0.2,-0.5));
#1635=CARTESIAN_POINT('',(-1.125,-0.471378508766301,-0.5));
#1636=CARTESIAN_POINT('',(-1.125,-0.2,0.0300000000000001));
#1637=CARTESIAN_POINT('',(-1.125,-0.471378508766301,0.0300000000000001));
#1638=CARTESIAN_POINT('',(-1.125,-0.2,-0.5));
#1639=CARTESIAN_POINT('Origin',(-1.225,-0.2,-0.5));
#1640=CARTESIAN_POINT('',(-1.225,-0.2,-0.5));
#1641=CARTESIAN_POINT('',(-1.5,-0.2,-0.5));
#1642=CARTESIAN_POINT('',(-1.225,-0.2,0.0300000000000001));
#1643=CARTESIAN_POINT('',(-1.5,-0.2,0.0300000000000001));
#1644=CARTESIAN_POINT('',(-1.225,-0.2,-0.5));
#1645=CARTESIAN_POINT('Origin',(-1.5,-0.2,-0.5));
#1646=CARTESIAN_POINT('',(-1.5,0.0749999999999996,-0.5));
#1647=CARTESIAN_POINT('Origin',(-1.5,-0.2,-0.5));
#1648=CARTESIAN_POINT('',(-1.5,0.0749999999999996,0.0300000000000001));
#1649=CARTESIAN_POINT('Origin',(-1.5,-0.2,0.0300000000000001));
#1650=CARTESIAN_POINT('',(-1.5,0.0749999999999996,-0.5));
#1651=CARTESIAN_POINT('Origin',(-1.5,0.183167006303272,-0.5));
#1652=CARTESIAN_POINT('',(-1.5,0.2,-0.5));
#1653=CARTESIAN_POINT('',(-1.5,0.2,0.0300000000000001));
#1654=CARTESIAN_POINT('Origin',(-1.3125,-0.00841649684836391,-0.5));
#1655=CARTESIAN_POINT('Origin',(-1.3125,-0.00841649684836391,0.0300000000000001));
#1656=CARTESIAN_POINT('Origin',(1.5,0.183167006303273,-0.5));
#1657=CARTESIAN_POINT('',(1.5,0.183167006303273,-0.5));
#1658=CARTESIAN_POINT('',(1.125,0.183167006303273,-0.5));
#1659=CARTESIAN_POINT('',(1.5,0.183167006303273,-0.5));
#1660=CARTESIAN_POINT('',(1.125,0.183167006303273,0.0300000000000001));
#1661=CARTESIAN_POINT('',(1.125,0.183167006303273,-0.5));
#1662=CARTESIAN_POINT('',(1.5,0.183167006303273,0.0300000000000001));
#1663=CARTESIAN_POINT('',(1.5,0.183167006303273,0.0300000000000001));
#1664=CARTESIAN_POINT('',(1.5,0.183167006303273,-0.5));
#1665=CARTESIAN_POINT('Origin',(1.5,0.0750000000000001,-0.5));
#1666=CARTESIAN_POINT('',(1.5,0.0750000000000001,-0.5));
#1667=CARTESIAN_POINT('',(1.5,-0.2,-0.5));
#1668=CARTESIAN_POINT('',(1.5,0.0750000000000001,0.0300000000000001));
#1669=CARTESIAN_POINT('',(1.5,-0.2,0.0300000000000001));
#1670=CARTESIAN_POINT('',(1.5,0.0750000000000001,-0.5));
#1671=CARTESIAN_POINT('Origin',(1.5,-0.2,-0.5));
#1672=CARTESIAN_POINT('',(1.225,-0.2,-0.5));
#1673=CARTESIAN_POINT('Origin',(1.5,-0.2,-0.5));
#1674=CARTESIAN_POINT('',(1.225,-0.2,0.0300000000000001));
#1675=CARTESIAN_POINT('Origin',(1.5,-0.2,0.0300000000000001));
#1676=CARTESIAN_POINT('',(1.225,-0.2,-0.5));
#1677=CARTESIAN_POINT('Origin',(1.125,-0.2,-0.5));
#1678=CARTESIAN_POINT('',(1.125,-0.2,-0.5));
#1679=CARTESIAN_POINT('',(1.125,-0.2,-0.5));
#1680=CARTESIAN_POINT('',(1.125,-0.2,0.0300000000000001));
#1681=CARTESIAN_POINT('',(1.125,-0.2,0.0300000000000001));
#1682=CARTESIAN_POINT('',(1.125,-0.2,-0.5));
#1683=CARTESIAN_POINT('Origin',(1.125,0.183167006303273,-0.5));
#1684=CARTESIAN_POINT('',(1.125,0.471378508766301,-0.5));
#1685=CARTESIAN_POINT('',(1.125,0.471378508766301,0.0300000000000001));
#1686=CARTESIAN_POINT('Origin',(1.3125,-0.00841649684836356,-0.5));
#1687=CARTESIAN_POINT('Origin',(1.3125,-0.00841649684836356,0.0300000000000001));
#1688=UNCERTAINTY_MEASURE_WITH_UNIT(LENGTH_MEASURE(0.01),#1692,
'DISTANCE_ACCURACY_VALUE',
'Maximum model space distance between geometric entities at asserted c
onnectivities');
#1689=UNCERTAINTY_MEASURE_WITH_UNIT(LENGTH_MEASURE(0.01),#1692,
'DISTANCE_ACCURACY_VALUE',
'Maximum model space distance between geometric entities at asserted c
onnectivities');
#1690=(
GEOMETRIC_REPRESENTATION_CONTEXT(3)
GLOBAL_UNCERTAINTY_ASSIGNED_CONTEXT((#1688))
GLOBAL_UNIT_ASSIGNED_CONTEXT((#1692,#1694,#1695))
REPRESENTATION_CONTEXT('','3D')
);
#1691=(
GEOMETRIC_REPRESENTATION_CONTEXT(3)
GLOBAL_UNCERTAINTY_ASSIGNED_CONTEXT((#1689))
GLOBAL_UNIT_ASSIGNED_CONTEXT((#1692,#1694,#1695))
REPRESENTATION_CONTEXT('','3D')
);
#1692=(
LENGTH_UNIT()
NAMED_UNIT(*)
SI_UNIT(.MILLI.,.METRE.)
);
#1693=(
LENGTH_UNIT()
NAMED_UNIT(*)
SI_UNIT($,.METRE.)
);
#1694=(
NAMED_UNIT(*)
PLANE_ANGLE_UNIT()
SI_UNIT($,.RADIAN.)
);
#1695=(
NAMED_UNIT(*)
SI_UNIT($,.STERADIAN.)
SOLID_ANGLE_UNIT()
);
#1696=SHAPE_DEFINITION_REPRESENTATION(#1697,#1698);
#1697=PRODUCT_DEFINITION_SHAPE('',$,#1700);
#1698=SHAPE_REPRESENTATION('',(#1060),#1690);
#1699=PRODUCT_DEFINITION_CONTEXT('part definition',#1704,'design');
#1700=PRODUCT_DEFINITION('LTST-S33FBEGW-5A','LTST-S33FBEGW-5A v3',#1701,
#1699);
#1701=PRODUCT_DEFINITION_FORMATION('',$,#1706);
#1702=PRODUCT_RELATED_PRODUCT_CATEGORY('LTST-S33FBEGW-5A v3',
'LTST-S33FBEGW-5A v3',(#1706));
#1703=APPLICATION_PROTOCOL_DEFINITION('international standard',
'automotive_design',2009,#1704);
#1704=APPLICATION_CONTEXT(
'Core Data for Automotive Mechanical Design Process');
#1705=PRODUCT_CONTEXT('part definition',#1704,'mechanical');
#1706=PRODUCT('LTST-S33FBEGW-5A','LTST-S33FBEGW-5A v3',$,(#1705));
#1707=PRESENTATION_STYLE_ASSIGNMENT((#1712));
#1708=PRESENTATION_STYLE_ASSIGNMENT((#1713));
#1709=PRESENTATION_STYLE_ASSIGNMENT((#1714));
#1710=PRESENTATION_STYLE_ASSIGNMENT((#1715));
#1711=PRESENTATION_STYLE_ASSIGNMENT((#1716));
#1712=SURFACE_STYLE_USAGE(.BOTH.,#1717);
#1713=SURFACE_STYLE_USAGE(.BOTH.,#1718);
#1714=SURFACE_STYLE_USAGE(.BOTH.,#1719);
#1715=SURFACE_STYLE_USAGE(.BOTH.,#1720);
#1716=SURFACE_STYLE_USAGE(.BOTH.,#1721);
#1717=SURFACE_SIDE_STYLE('',(#1722));
#1718=SURFACE_SIDE_STYLE('',(#1723));
#1719=SURFACE_SIDE_STYLE('',(#1724));
#1720=SURFACE_SIDE_STYLE('',(#1725));
#1721=SURFACE_SIDE_STYLE('',(#1726));
#1722=SURFACE_STYLE_FILL_AREA(#1727);
#1723=SURFACE_STYLE_FILL_AREA(#1728);
#1724=SURFACE_STYLE_FILL_AREA(#1729);
#1725=SURFACE_STYLE_FILL_AREA(#1730);
#1726=SURFACE_STYLE_FILL_AREA(#1731);
#1727=FILL_AREA_STYLE('Steel - Satin',(#1732));
#1728=FILL_AREA_STYLE('Acrylic (Clear) (1)',(#1733));
#1729=FILL_AREA_STYLE('Opaque(255,255,255) (1)',(#1734));
#1730=FILL_AREA_STYLE('Opaque(255,255,255)',(#1735));
#1731=FILL_AREA_STYLE('Gold - Polished',(#1736));
#1732=FILL_AREA_STYLE_COLOUR('Steel - Satin',#1737);
#1733=FILL_AREA_STYLE_COLOUR('Acrylic (Clear) (1)',#1738);
#1734=FILL_AREA_STYLE_COLOUR('Opaque(255,255,255) (1)',#1739);
#1735=FILL_AREA_STYLE_COLOUR('Opaque(255,255,255)',#1740);
#1736=FILL_AREA_STYLE_COLOUR('Gold - Polished',#1741);
#1737=COLOUR_RGB('Steel - Satin',0.627450980392157,0.627450980392157,0.627450980392157);
#1738=COLOUR_RGB('Acrylic (Clear) (1)',0.988235294117647,0.984313725490196,
0.976470588235294);
#1739=COLOUR_RGB('Opaque(255,255,255) (1)',0.705882352941177,0.698039215686274,
0.698039215686274);
#1740=COLOUR_RGB('Opaque(255,255,255)',1.,1.,1.);
#1741=COLOUR_RGB('Gold - Polished',0.956862745098039,0.898039215686275,
0.654901960784314);
ENDSEC;
END-ISO-10303-21;
